<svg width="398" height="62" viewBox="0 0 398 62" fill="none" xmlns="http://www.w3.org/2000/svg">
<path fill-rule="evenodd" clip-rule="evenodd" d="M50.3075 51.3328C33.3902 53.1302 15.6451 55.5715 4.47173 57.2718L4.32129 56.2832C15.5059 54.5812 33.2663 52.1378 50.2019 50.3384C67.1142 48.5416 83.272 47.3788 91.2105 48.2609C93.3619 48.4999 95.4329 48.7473 97.4798 48.9919C104.815 49.8683 111.84 50.7076 121.153 50.992C133.062 51.3556 148.713 50.8108 173.488 48.2604L173.591 49.2552C148.789 51.8083 133.091 52.357 121.123 51.9916C111.762 51.7057 104.684 50.86 97.342 49.9827C95.3001 49.7387 93.2377 49.4923 91.1 49.2547C83.2907 48.387 67.2481 49.533 50.3075 51.3328Z" fill="#DF38E1"/>
<path fill-rule="evenodd" clip-rule="evenodd" d="M89.6179 48.5287C56.6028 48.1035 21.9091 49.0146 0.0444006 49.9863L0 48.9873C21.8792 48.0149 56.5925 47.1033 89.6307 47.5287C106.15 47.7415 122.255 48.2885 136.13 49.33C149.996 50.3707 161.669 51.9074 169.304 54.1099L169.027 55.0707C161.497 52.8988 149.913 51.3673 136.056 50.3272C122.208 49.2878 106.126 48.7412 89.6179 48.5287Z" fill="#DF38E1"/>
<path fill-rule="evenodd" clip-rule="evenodd" d="M236.44 7.49803C231.792 7.571 227.331 7.64102 223.123 7.70113C202.759 7.99205 192.118 12.6607 187.032 18.2371C181.97 23.7882 182.32 30.3471 184.206 34.7072L184.211 34.7191L184.215 34.7313C185.605 38.467 189.424 41.7648 195.24 44.6299C201.038 47.4865 208.728 49.8682 217.709 51.8235C235.667 55.7333 258.69 57.9189 281.826 58.8297C304.957 59.7404 328.178 59.376 346.524 58.1924C355.697 57.6006 363.644 56.8044 369.747 55.862C372.799 55.3907 375.383 54.884 377.424 54.3502C379.479 53.8129 380.94 53.2593 381.78 52.7131C385.318 50.4136 387.292 47.378 388.105 43.9823C388.921 40.5736 388.574 36.7717 387.407 32.9558C385.07 25.3148 379.484 17.7471 373.733 13.4337C372.369 12.4113 369.811 11.5054 366.187 10.7303C362.586 9.95996 358.005 9.33279 352.66 8.82673C341.972 7.81475 328.272 7.29096 313.33 7.06319C288.375 6.68278 259.988 7.12838 236.44 7.49803ZM366.397 9.75239C370.029 10.5293 372.78 11.4689 374.333 12.6337C380.247 17.0691 385.961 24.8117 388.363 32.6633C389.565 36.5938 389.947 40.5838 389.077 44.2152C388.205 47.8594 386.078 51.112 382.325 53.5515C381.343 54.19 379.75 54.7756 377.677 55.3176C375.59 55.8632 372.971 56.376 369.9 56.8503C363.757 57.7988 355.778 58.5975 346.588 59.1904C328.207 60.3763 304.951 60.7409 281.786 59.8289C258.626 58.9171 235.536 56.7283 217.496 52.8006C208.478 50.8372 200.699 48.4345 194.798 45.5269C188.919 42.6307 184.812 39.1886 183.283 35.0922C181.284 30.4604 180.911 23.4657 186.293 17.5633C191.658 11.6812 202.645 6.99357 223.109 6.70124C227.314 6.64116 231.772 6.57117 236.42 6.49822C259.967 6.12856 288.373 5.68263 313.346 6.06331C328.296 6.29121 342.027 6.81546 352.755 7.83118C358.118 8.33898 362.742 8.97059 366.397 9.75239Z" fill="#DF38E1"/>
<path fill-rule="evenodd" clip-rule="evenodd" d="M266.594 0.0483866C298.235 0.504305 332.186 4.15088 351.568 9.63621C372.953 15.6886 385.429 24.8901 391.853 32.2405C393.473 30.2595 394.926 28.1516 396.199 25.9099L397.068 26.4035C395.737 28.7501 394.212 30.9509 392.512 33.0137C394.998 36.0026 396.462 38.6433 397.108 40.5799L396.159 40.8962C395.565 39.1143 394.198 36.6328 391.857 33.7919C383.684 43.2972 371.721 49.7933 357.822 54.0883C340.577 59.4171 320.291 61.3783 300.399 61.4696C260.622 61.6521 222.295 54.3559 212.762 51.4228C203.197 48.4797 193.602 41.8545 188.967 34.0677C186.644 30.1651 185.55 25.9389 186.377 21.7315C187.205 17.5203 189.942 13.4096 195.121 9.71045C197.743 7.83754 201.557 6.28063 206.26 4.9999C210.972 3.71713 216.61 2.7024 222.907 1.93166C235.502 0.390133 250.768 -0.179647 266.594 0.0483866ZM391.203 33.0181C384.978 25.8408 372.688 16.6529 351.295 10.5984C332.036 5.14777 298.185 1.5037 266.579 1.04828C250.782 0.82065 235.564 1.39003 223.029 2.92425C216.761 3.69138 211.173 4.69867 206.523 5.96478C201.866 7.23292 198.184 8.75176 195.702 10.5242C190.674 14.1157 188.125 18.0247 187.358 21.9244C186.591 25.8277 187.593 29.8036 189.826 33.5562C194.305 41.0797 203.666 47.5776 213.056 50.4671C222.479 53.3665 260.704 60.6517 300.395 60.4696C320.237 60.3786 340.414 58.4211 357.527 53.1329C371.386 48.8501 383.194 42.3964 391.203 33.0181Z" fill="#DF38E1"/>
<path d="M28.8222 44.4999H35.9862L22.9542 19.2999H14.2062L1.21021 44.4999H8.33821L11.0382 39.1359H26.1222L28.8222 44.4999ZM13.4502 34.3119L18.5982 24.0879L23.7102 34.3119H13.4502Z" fill="white"/>
<path d="M66.983 28.5519C66.983 22.9359 63.0591 19.2999 57.3351 19.2999H37.535V44.4999H44.015V37.7679H54.4551L58.5231 44.4999H66.155L61.5111 37.0119C64.8951 35.6799 66.983 32.6559 66.983 28.5519ZM44.015 24.7359H55.535C57.479 24.7359 60.5031 24.7359 60.5031 28.5519C60.5031 32.3319 57.479 32.3319 55.535 32.3319H44.015V24.7359Z" fill="white"/>
<path d="M99.2483 19.2999H68.2883V24.7359H80.5283V44.4999H87.0083V24.7359H99.2483V19.2999Z" fill="white"/>
<path d="M107.859 19.2999H101.379V44.4999H107.859V19.2999Z" fill="white"/>
<path d="M109.984 35.8239C109.984 43.0959 116.14 44.8599 126.472 44.8599C135.796 44.8599 142.168 43.4919 142.168 36.7599C142.168 30.3879 136.012 29.8479 126.076 29.3079C118.732 28.8759 117.22 28.5159 117.22 26.5719C117.22 24.6999 118.732 24.0879 125.104 24.0879C131.836 24.0879 134.608 24.7719 134.608 27.5439H141.088C141.088 21.3159 135.328 18.9399 125.824 18.9399C116.392 18.9399 110.74 20.7039 110.74 26.2479C110.74 31.8999 115.096 33.6279 126.076 34.1319C134.248 34.5279 135.688 34.8879 135.688 36.9759C135.688 38.9559 133.636 39.7119 126.832 39.7119C118.624 39.7119 116.464 38.4879 116.464 35.8239H109.984Z" fill="white"/>
<path d="M173.112 19.2999H142.152V24.7359H154.392V44.4999H160.872V24.7359H173.112V19.2999Z" fill="white"/>
<path d="M212.093 19.2999H192.293V44.4999H198.773V37.7679H212.093C217.817 37.7679 221.741 34.1679 221.741 28.5519C221.741 22.9359 217.817 19.2999 212.093 19.2999ZM210.293 32.3319H198.773V24.7359H210.293C212.237 24.7359 215.261 24.7359 215.261 28.5519C215.261 32.3319 212.237 32.3319 210.293 32.3319Z" fill="white"/>
<path d="M253.522 28.5519C253.522 22.9359 249.598 19.2999 243.874 19.2999H224.074V44.4999H230.554V37.7679H240.994L245.062 44.4999H252.694L248.05 37.0119C251.434 35.6799 253.522 32.6559 253.522 28.5519ZM230.554 24.7359H242.074C244.018 24.7359 247.042 24.7359 247.042 28.5519C247.042 32.3319 244.018 32.3319 242.074 32.3319H230.554V24.7359Z" fill="white"/>
<path d="M271.124 44.8599C282.176 44.8599 286.964 40.2159 286.964 31.8639C286.964 23.5479 282.176 18.9399 271.124 18.9399C260.036 18.9399 255.284 23.5119 255.284 31.8639C255.284 40.2519 260.036 44.8599 271.124 44.8599ZM271.124 39.4239C264.392 39.4239 261.764 37.0479 261.764 31.8639C261.764 26.7159 264.356 24.3759 271.124 24.3759C277.892 24.3759 280.484 26.7519 280.484 31.8639C280.484 37.0119 277.856 39.4239 271.124 39.4239Z" fill="white"/>
<path d="M315.964 24.7359V19.2999H289.324V44.4999H295.804V36.6159H313.804V31.1439H295.804V24.7359H315.964Z" fill="white"/>
<path d="M324.597 19.2999H318.117V44.4999H324.597V19.2999Z" fill="white"/>
<path d="M333.949 39.0639V19.2999H327.469V44.4999H353.389V39.0639H333.949Z" fill="white"/>
<path d="M382.55 24.4479V19.2999H355.91V44.4999H382.55V39.3519H362.39V34.2399H382.55V29.5599H362.39V24.4479H382.55Z" fill="white"/>
</svg>
