<svg width="806" height="806" viewBox="0 0 806 806" fill="none" xmlns="http://www.w3.org/2000/svg">
<path opacity="0.05" d="M702.832 522.132C734.299 442.741 732.939 354.101 699.051 275.713C665.163 197.325 601.523 135.609 522.132 104.142C442.741 72.6758 354.101 74.036 275.713 107.924C197.325 141.812 135.609 205.451 104.142 284.842C72.6758 364.234 74.036 452.873 107.924 531.262C141.812 609.65 205.451 671.366 284.842 702.832C364.234 734.299 452.873 732.939 531.262 699.051C609.65 665.163 671.366 601.523 702.832 522.132ZM777.668 551.793C738.335 651.032 661.19 730.582 563.205 772.942C465.22 815.301 354.42 817.002 255.181 777.668C206.043 758.193 161.222 729.229 123.277 692.431C85.3327 655.634 55.0074 611.723 34.033 563.205C-8.32678 465.22 -10.0271 354.42 29.3062 255.181C68.6394 155.942 145.784 76.3928 243.77 34.033C341.755 -8.3268 452.554 -10.0271 551.793 29.3061C600.932 48.782 645.753 77.7456 683.697 114.543C721.642 151.341 751.967 195.252 772.942 243.77C793.916 292.287 805.129 344.461 805.94 397.311C806.751 450.162 797.144 502.655 777.668 551.793ZM365.728 280.281C353.863 310.215 317.289 326.027 287.355 314.162C257.42 302.298 241.609 265.723 253.473 235.789C265.338 205.854 301.912 190.043 331.846 201.908C361.781 213.772 377.592 250.346 365.728 280.281ZM627.654 384.095C615.79 414.03 579.216 429.841 549.281 417.976C519.347 406.112 503.536 369.538 515.4 339.603C527.265 309.669 563.839 293.857 593.773 305.722C623.708 317.586 639.519 354.161 627.654 384.095ZM325.923 599.184C260.441 573.23 213.644 523.076 195.985 469.317L270.178 437.243C276.338 470.858 308.812 505.81 355.584 524.348C402.357 542.886 449.958 539.672 477.474 519.404L509.549 593.598C459.855 620.662 391.405 625.138 325.923 599.184Z" fill="#DF38E1"/>
</svg>
