<svg width="400" height="38" viewBox="0 0 400 38" fill="none" xmlns="http://www.w3.org/2000/svg">
<path d="M15.776 16.7119H25.172C25.028 18.6199 22.508 21.3559 16.244 21.3559C7.85599 21.3559 6.66799 16.6039 6.66799 13.5439C6.66799 10.5199 7.81999 5.87594 16.244 5.87594C23.084 5.87594 24.812 8.71994 25.172 10.6279H31.76C31.364 4.36394 26.324 0.439941 16.244 0.439941C5.87599 0.439941 0.187988 5.04794 0.187988 13.3999C0.187988 21.7519 5.87599 26.3599 15.164 26.3599C20.528 26.3599 24.308 24.6319 26.684 22.0399L26.972 25.9999H31.76V12.4999H15.776V16.7119Z" fill="white"/>
<path d="M63.746 10.0519C63.746 4.43594 59.822 0.799941 54.098 0.799941H34.298V25.9999H40.778V19.2679H51.218L55.286 25.9999H62.918L58.274 18.5119C61.658 17.1799 63.746 14.1559 63.746 10.0519ZM40.778 6.23594H52.298C54.242 6.23594 57.266 6.23594 57.266 10.0519C57.266 13.8319 54.242 13.8319 52.298 13.8319H40.778V6.23594Z" fill="white"/>
<path d="M91.8898 25.9999H99.0538L86.0218 0.799941H77.2738L64.2778 25.9999H71.4058L74.1058 20.6359H89.1898L91.8898 25.9999ZM76.5178 15.8119L81.6658 5.58794L86.7778 15.8119H76.5178Z" fill="white"/>
<path d="M120.403 0.799941H100.603V25.9999H107.083V19.2679H120.403C126.127 19.2679 130.051 15.6679 130.051 10.0519C130.051 4.43594 126.127 0.799941 120.403 0.799941ZM118.603 13.8319H107.083V6.23594H118.603C120.547 6.23594 123.571 6.23594 123.571 10.0519C123.571 13.8319 120.547 13.8319 118.603 13.8319Z" fill="white"/>
<path d="M159.384 0.799941V10.6639H138.864V0.799941H132.384V25.9999H138.864V16.1359H159.384V25.9999H165.864V0.799941H159.384Z" fill="white"/>
<path d="M175.215 0.799941H168.735V25.9999H175.215V0.799941Z" fill="white"/>
<path d="M177.375 13.3639C177.375 21.7519 182.127 26.3599 193.215 26.3599C203.259 26.3599 208.299 22.5079 208.947 15.1999H202.359C201.747 19.3039 198.579 20.9239 193.215 20.9239C186.663 20.9239 183.855 18.5479 183.855 13.3639C183.855 8.21594 186.627 5.87594 193.215 5.87594C198.615 5.87594 201.747 7.45994 202.359 11.5279H208.947C208.299 4.25594 203.259 0.439941 193.215 0.439941C182.127 0.439941 177.375 5.01194 177.375 13.3639Z" fill="white"/>
<path d="M246.438 0.799941H228.15V25.9999H246.438C252.954 25.9999 258.678 21.9679 258.678 13.3999C258.678 4.83194 252.954 0.799941 246.438 0.799941ZM243.99 20.5639H234.63V6.23594H243.99C248.886 6.23594 252.198 7.27994 252.198 13.3999C252.198 19.5199 248.886 20.5639 243.99 20.5639Z" fill="white"/>
<path d="M287.661 5.94794V0.799941H261.021V25.9999H287.661V20.8519H267.501V15.7399H287.661V11.0599H267.501V5.94794H287.661Z" fill="white"/>
<path d="M289.665 17.3239C289.665 24.5959 295.821 26.3599 306.153 26.3599C315.477 26.3599 321.849 24.9919 321.849 18.2599C321.849 11.8879 315.693 11.3479 305.757 10.8079C298.413 10.3759 296.901 10.0159 296.901 8.07194C296.901 6.19994 298.413 5.58794 304.785 5.58794C311.517 5.58794 314.289 6.27194 314.289 9.04394H320.769C320.769 2.81594 315.009 0.439941 305.505 0.439941C296.073 0.439941 290.421 2.20394 290.421 7.74794C290.421 13.3999 294.777 15.1279 305.757 15.6319C313.929 16.0279 315.369 16.3879 315.369 18.4759C315.369 20.4559 313.317 21.2119 306.513 21.2119C298.305 21.2119 296.145 19.9879 296.145 17.3239H289.665Z" fill="white"/>
<path d="M330.676 0.799941H324.196V25.9999H330.676V0.799941Z" fill="white"/>
<path d="M348.424 16.7119H357.82C357.676 18.6199 355.156 21.3559 348.892 21.3559C340.504 21.3559 339.316 16.6039 339.316 13.5439C339.316 10.5199 340.468 5.87594 348.892 5.87594C355.732 5.87594 357.46 8.71994 357.82 10.6279H364.408C364.012 4.36394 358.972 0.439941 348.892 0.439941C338.524 0.439941 332.836 5.04794 332.836 13.3999C332.836 21.7519 338.524 26.3599 347.812 26.3599C353.176 26.3599 356.956 24.6319 359.332 22.0399L359.62 25.9999H364.408V12.4999H348.424V16.7119Z" fill="white"/>
<path d="M392.938 0.799941V19.7359L375.73 0.799941H366.946V25.9999H373.426V7.09994L390.598 25.9999H399.418V0.799941H392.938Z" fill="white"/>
<path fill-rule="evenodd" clip-rule="evenodd" d="M106.265 31.4878C71.1696 31.4878 26.1715 35.8185 8.0594 37.9843L7.94067 36.9913C26.0682 34.8237 71.1114 30.4878 106.265 30.4878C141.398 30.4878 224.519 33.1546 261.688 34.4879C278.643 34.6544 305.5 34.6544 330.975 34.1129C356.469 33.571 380.529 32.4874 391.914 30.4953L392.086 31.4803C380.612 33.4882 356.469 34.5712 330.996 35.1127C305.506 35.6545 278.634 35.6545 261.672 35.4878L261.659 35.4876V35.4875C224.488 34.154 141.379 31.4878 106.265 31.4878Z" fill="#DF38E1"/>
<path fill-rule="evenodd" clip-rule="evenodd" d="M288.812 27.4897C328.992 23.8863 368.795 25.9878 383.687 27.4903L383.587 28.4852C368.744 26.9877 329.006 24.8891 288.901 28.4857C238.707 32.9872 201.757 34.4876 138.331 35.4877C87.5803 36.2879 32.14 34.1541 10.7605 32.987L10.815 31.9885C32.1796 33.1548 87.5952 35.2876 138.315 34.4878C201.728 33.4879 238.651 31.9883 288.812 27.4897Z" fill="#DF38E1"/>
</svg>
