<svg width="756" height="335" viewBox="0 0 756 335" fill="none" xmlns="http://www.w3.org/2000/svg">
<path fill-rule="evenodd" clip-rule="evenodd" d="M86.705 183.898C86.8675 183.086 87.6577 182.559 88.4701 182.721C100.985 185.224 113.415 187.993 125.825 190.757C154.474 197.138 183.01 203.494 212.203 206.495C217.785 206.32 223.37 206.126 228.959 205.932C261.034 204.818 293.21 203.7 325.342 206.08C329.887 206.417 334.39 206.79 338.871 207.162C352.571 208.298 366.065 209.416 379.917 209.416C394.154 209.416 408.387 209.143 422.634 208.867L423.027 208.86C427.523 208.773 432.019 208.686 436.517 208.607C436.876 208.52 437.232 208.434 437.585 208.347C444.044 206.754 451.054 206.928 457.656 207.092C459.626 207.141 461.559 207.189 463.431 207.189C467.233 207.189 471.417 207.378 475.697 207.863C511.415 206.384 547.397 205.381 583.068 206.915C560.432 205.49 537.722 205.587 514.888 205.686C509.085 205.71 503.274 205.735 497.455 205.735H354.306C353.478 205.735 352.806 205.064 352.806 204.235C352.806 203.407 353.478 202.735 354.306 202.735H497.455C503.25 202.735 509.045 202.71 514.84 202.685C549.982 202.533 585.107 202.381 620.111 207.826C639.577 210.854 659.396 212.035 679.305 213.221C680.376 213.285 681.448 213.349 682.519 213.413C703.482 214.668 724.521 216.039 745.166 219.709C748.539 220.308 750.904 220.776 752.354 221.127C753.05 221.296 753.639 221.461 754.029 221.632C754.133 221.678 754.269 221.744 754.406 221.836C754.503 221.9 754.801 222.104 754.991 222.491C755.102 222.716 755.186 223.027 755.137 223.387C755.088 223.744 754.924 224.017 754.764 224.2C754.488 224.514 754.158 224.635 754.051 224.673C753.781 224.768 753.49 224.802 753.292 224.819C753.06 224.84 752.791 224.851 752.496 224.855C751.906 224.864 751.138 224.847 750.22 224.81C748.381 224.735 745.864 224.575 742.8 224.347C734.988 223.767 723.509 222.745 710.384 221.576C703.02 220.92 695.138 220.218 687.094 219.522C685.292 220.077 681.763 220.942 678.511 221.693C675.096 222.481 671.773 223.194 670.977 223.293C644.778 226.535 616.742 225.615 590.536 224.168C574.348 223.274 558.226 221.833 542.137 220.395C538.578 220.077 535.021 219.759 531.464 219.447C522.061 218.622 512.661 217.839 503.251 217.207C503.39 217.312 503.529 217.418 503.667 217.525C507.802 218.127 511.859 219.442 515.553 222.213C523.1 227.873 529.527 235.039 534.707 242.809C539.337 249.754 541.393 258.523 541.294 267.188C541.196 275.854 538.942 284.543 534.803 291.372C525.41 306.871 508.779 316.497 493.654 324.7C477.948 333.219 461.846 335.225 444.473 334.903C429.485 334.625 411.982 328.314 399.731 319.917C388.168 311.992 382.3 304.709 376.339 292.36C365.204 269.296 371.853 240.352 385.35 220.106C385.81 219.417 386.741 219.23 387.43 219.69C388.12 220.15 388.306 221.081 387.846 221.77C374.707 241.479 368.524 269.271 379.041 291.056C383.038 299.337 386.931 305.177 392.655 310.52C387.798 305.42 383.62 299.25 381.253 293.518C377.705 284.93 375.718 276.142 376.747 267.854C377.784 259.507 381.866 251.794 390.203 245.419C390.871 244.909 391.544 244.406 392.224 243.911C394.809 234.596 399.473 225.841 407.065 219.767C409.397 217.902 411.988 216.39 414.717 215.129C396.798 214.951 378.888 214.732 360.991 214.259C346.296 215.298 331.565 216.634 316.864 217.966C314.542 218.177 312.221 218.387 309.9 218.597C303.993 219.129 298.063 219.792 292.115 220.458C281.527 221.642 270.885 222.832 260.218 223.303C253.037 223.62 245.858 223.611 238.71 223.568C237.804 223.562 236.899 223.556 235.995 223.55C229.75 223.507 223.532 223.465 217.318 223.613C203.103 223.952 189.059 225.692 174.932 227.443C174.137 227.541 173.341 227.64 172.546 227.738C157.64 229.581 142.635 231.346 127.396 231.346C118.111 231.346 108.778 231.465 99.4243 231.583C76.8472 231.869 54.1445 232.157 31.6664 230.787C30.8689 230.738 30.0642 230.691 29.2537 230.643C20.2398 230.111 10.494 229.536 1.68469 226.826C1.33237 226.717 0.778462 226.508 0.395006 226.031C0.169009 225.75 0.00194167 225.373 1.67997e-05 224.931C-0.0018102 224.512 0.145698 224.177 0.287212 223.952C0.543714 223.545 0.919631 223.278 1.15489 223.128C1.42756 222.955 1.73225 222.803 2.02046 222.674C2.59979 222.414 3.24958 222.188 3.75288 222.025C4.009 221.942 4.23613 221.873 4.40913 221.821C4.49572 221.796 4.56885 221.774 4.62465 221.758L4.6936 221.738L4.71515 221.732L4.72147 221.73L4.72357 221.729C14.2604 218.85 24.1938 217.345 34.079 216.055C35.8344 215.826 37.5874 215.604 39.3365 215.382C47.4727 214.35 55.526 213.329 63.3691 211.676C92.0075 205.638 120.418 206.233 148.927 206.83C157.492 207.01 166.067 207.189 174.659 207.189C180.586 207.189 186.516 207.122 192.448 207.009C169.757 203.617 147.341 198.624 124.978 193.644C112.609 190.889 100.256 188.138 87.8817 185.663C87.0694 185.5 86.5426 184.71 86.705 183.898ZM212.097 209.5C199.624 209.891 187.142 210.189 174.659 210.189C165.926 210.189 157.26 210.008 148.641 209.828C120.201 209.235 92.2562 208.651 63.988 214.611C56.0133 216.293 47.8128 217.332 39.6724 218.363C37.9337 218.584 36.1977 218.804 34.4672 219.03C24.5988 220.317 14.875 221.798 5.59058 224.601C5.5673 224.608 5.53218 224.618 5.4869 224.632C5.42196 224.651 5.33614 224.676 5.23444 224.706C12.9638 226.673 21.3452 227.169 29.4855 227.651C30.2759 227.698 31.064 227.744 31.849 227.792C54.2112 229.156 76.7372 228.87 99.267 228.584C108.647 228.465 118.027 228.346 127.396 228.346C142.427 228.346 157.26 226.605 172.178 224.761C172.986 224.661 173.794 224.561 174.603 224.461C188.695 222.714 202.877 220.956 217.246 220.614C223.51 220.465 229.778 220.507 236.019 220.55C236.922 220.556 237.826 220.562 238.728 220.568C245.874 220.611 252.987 220.619 260.086 220.306C270.669 219.839 281.114 218.669 291.621 217.493C297.592 216.825 303.583 216.154 309.631 215.609C311.949 215.4 314.268 215.189 316.589 214.979C322.618 214.432 328.657 213.885 334.701 213.357C327.106 213.03 319.506 212.638 311.9 212.166C297.678 211.283 283.425 211.351 269.115 211.418L268.787 211.42C254.383 211.487 239.921 211.548 225.475 210.619C220.999 210.332 216.54 209.955 212.097 209.5ZM441.085 212.385C451.535 212.494 462.001 212.625 472.491 212.819C477.735 212.916 482.969 213.096 488.194 213.339C486.868 212.951 485.514 212.605 484.143 212.298C482.534 211.938 480.907 211.632 479.278 211.374C474.905 211.328 470.53 211.303 466.153 211.303L465.427 211.303C460.278 211.527 455.133 211.758 449.994 211.987C447.022 212.12 444.052 212.253 441.085 212.385ZM492.458 211.572C494.301 212.235 496.09 212.992 497.797 213.853C509.138 214.537 520.442 215.468 531.727 216.458C535.294 216.771 538.858 217.09 542.422 217.408C558.509 218.846 574.569 220.282 590.702 221.173C616.894 222.619 644.697 223.522 670.608 220.316C671.209 220.241 674.34 219.577 677.836 218.77C677.878 218.76 677.919 218.751 677.96 218.741C652.612 216.604 626.987 214.716 611.769 214.643C588.385 214.532 565.065 213.755 541.769 212.98L538.928 212.885C523.438 212.37 507.956 211.867 492.458 211.572ZM694.87 217.188C700.314 217.667 705.625 218.14 710.687 218.591C716.32 219.092 721.646 219.567 726.507 219.991C716.032 218.73 705.472 217.89 694.87 217.188ZM610.387 211.636C581.463 209.205 552.213 208.822 522.923 209.364C528.293 209.531 533.661 209.708 539.028 209.887L541.855 209.981C564.698 210.741 587.515 211.501 610.387 211.636ZM496.987 216.81C488.818 216.325 480.638 215.971 472.435 215.819C456.728 215.528 441.024 215.379 425.327 215.231C424.53 215.223 423.733 215.216 422.937 215.208C422.876 215.227 422.816 215.246 422.756 215.266C417.624 216.896 412.831 218.996 408.939 222.109C402.911 226.932 398.819 233.68 396.232 241.124C422.379 223.777 455.819 217.211 486.32 217.211C487.818 217.211 489.37 217.173 490.949 217.134C493.095 217.081 495.29 217.026 497.466 217.066C497.307 216.98 497.148 216.894 496.987 216.81ZM502.443 220.388C501.934 220.325 501.42 220.274 500.902 220.231C497.717 219.967 494.512 220.047 491.237 220.129C489.617 220.17 487.98 220.211 486.32 220.211C454.945 220.211 420.727 227.252 394.842 245.721C393.241 251.881 392.552 258.328 392.552 264.427C392.552 275.147 394.247 284.178 397.951 292.239C401.654 300.299 407.407 307.479 415.651 314.441C416.093 314.814 416.53 315.185 416.963 315.553C419.777 317.945 422.427 320.197 425.231 321.924C429.318 322.143 433.536 322.057 437.948 321.967C439.563 321.934 441.205 321.901 442.875 321.882C465.988 321.616 489.648 309.065 507.067 294.396C508.518 293.175 510.237 291.868 512.032 290.504C512.58 290.087 513.136 289.664 513.693 289.237C516.097 287.395 518.569 285.439 520.809 283.347C525.345 279.109 528.633 274.577 528.742 269.652C528.903 262.426 527.196 257.045 524.399 250.21C519.914 239.247 511.65 228.059 502.557 220.482C502.519 220.45 502.481 220.419 502.443 220.388ZM424.33 324.88C427.757 326.87 431.565 328.222 436.088 328.222H468.998C469.827 328.222 470.498 327.551 470.498 326.722C470.498 325.894 469.827 325.222 468.998 325.222H436.088C435.208 325.222 434.359 325.164 433.537 325.053C435.025 325.034 436.52 325.002 438.024 324.97C439.643 324.935 441.271 324.9 442.91 324.881C466.993 324.605 491.306 311.591 509 296.691C510.387 295.523 512.022 294.28 513.801 292.927C514.36 292.502 514.934 292.066 515.518 291.618C517.937 289.765 520.505 287.736 522.857 285.539C527.505 281.197 531.603 275.93 531.741 269.719C531.916 261.883 530.03 256.051 527.176 249.074C523.169 239.28 516.306 229.368 508.468 221.771C510.317 222.442 512.084 223.361 513.753 224.613C520.987 230.039 527.188 236.94 532.211 244.473C536.432 250.806 538.388 258.946 538.295 267.154C538.201 275.361 536.061 283.51 532.238 289.817C523.323 304.527 507.426 313.818 492.224 322.063C477.15 330.239 461.631 332.22 444.529 331.904C432.427 331.679 418.454 327.302 407.27 321.055C412.88 323.507 418.555 324.511 424.33 324.88ZM419.218 321.334C417.831 320.239 416.486 319.092 415.153 317.955C414.673 317.545 414.194 317.137 413.716 316.733C405.213 309.553 399.15 302.035 395.225 293.492C391.3 284.949 389.552 275.471 389.552 264.427C389.552 259.315 390.022 253.881 391.118 248.516C384.019 254.266 380.621 261.003 379.724 268.223C378.783 275.804 380.585 284.044 384.025 292.373C387.591 301.005 395.618 310.791 403.474 315.674C408.646 318.889 413.841 320.527 419.218 321.334ZM346.901 210.829C344.112 210.607 341.323 210.376 338.531 210.144C334.072 209.774 329.606 209.404 325.12 209.072C298.667 207.112 272.189 207.536 245.656 208.372C253.347 208.49 261.052 208.456 268.773 208.42L269.147 208.418C283.426 208.351 297.764 208.283 312.086 209.172C323.7 209.893 335.302 210.426 346.901 210.829ZM2.45738 223.918C2.45787 223.918 2.46512 223.921 2.47768 223.928C2.46317 223.922 2.45689 223.918 2.45738 223.918Z" fill="#DF38E1"/>
<path d="M48.0849 44.032V55.912C44.2129 57.2613 41.2796 58.7867 39.2849 60.488C37.3489 62.1307 36.0289 63.9493 35.3249 65.944C34.6796 67.88 34.3569 69.9333 34.3569 72.104C34.3569 77.3253 35.5009 81.1093 37.7889 83.456C40.0769 85.8027 43.0396 86.976 46.6769 86.976C48.0849 86.976 49.6102 86.8293 51.2529 86.536C52.9542 86.2427 54.3036 85.6267 55.3009 84.688C54.1862 84.4533 53.2769 83.9547 52.5729 83.192C51.9276 82.488 51.6049 81.4907 51.6049 80.2C51.6049 78.6747 52.0742 77.5013 53.0129 76.68C54.0102 75.8587 55.1542 75.448 56.4449 75.448C57.7942 75.448 58.9089 75.888 59.7889 76.768C60.6689 77.648 61.1089 78.7627 61.1089 80.112C61.1089 81.344 60.7276 82.4587 59.9649 83.456C59.2609 84.512 58.2636 85.4213 56.9729 86.184C55.7996 86.888 54.2449 87.4747 52.3089 87.944C50.3729 88.472 47.9382 88.736 45.0049 88.736C41.3676 88.736 38.1409 88.12 35.3249 86.888C32.5676 85.7147 30.3969 84.0133 28.8129 81.784C27.2876 79.5547 26.5249 76.8853 26.5249 73.776C26.5249 70.608 27.3462 67.792 28.9889 65.328C30.6902 62.864 33.0076 60.7813 35.9409 59.08C38.9329 57.32 42.3942 56 46.3249 55.12V44.032H48.0849ZM47.1169 25.552C48.6422 25.552 49.9622 26.1093 51.0769 27.224C52.1916 28.3387 52.7489 29.6587 52.7489 31.184C52.7489 32.7093 52.1916 34.0293 51.0769 35.144C49.9622 36.2587 48.6422 36.816 47.1169 36.816C45.5916 36.816 44.2716 36.2587 43.1569 35.144C42.0422 34.0293 41.4849 32.7093 41.4849 31.184C41.4849 29.6587 42.0422 28.3387 43.1569 27.224C44.2716 26.1093 45.5916 25.552 47.1169 25.552Z" fill="white"/>
<path d="M129.496 74.216L130.816 74.744C130.112 77.1493 129.291 79.144 128.352 80.728C127.472 82.3707 126.445 83.72 125.272 84.776C124.157 85.7733 122.632 86.6827 120.696 87.504C118.819 88.3253 116.384 88.736 113.392 88.736C110.283 88.736 107.261 88.208 104.328 87.152C101.453 86.1547 98.4612 84.9227 95.3519 83.456C92.2426 81.9893 88.8106 80.64 85.0559 79.408C84.6452 79.2907 84.2639 79.1733 83.9119 79.056C83.5599 78.9387 83.2372 78.8507 82.9439 78.792C81.8292 79.2027 80.6266 79.5253 79.3359 79.76C78.0452 79.9947 76.8132 80.112 75.6399 80.112C74.4666 80.112 73.4986 79.9653 72.7359 79.672C71.9732 79.3787 71.5919 78.9387 71.5919 78.352C71.5919 77.12 73.1759 76.504 76.3439 76.504C78.3972 76.504 80.5972 76.7387 82.9439 77.208C85.0559 76.6213 86.8746 75.9467 88.3999 75.184C89.9252 74.48 91.4799 73.8053 93.0639 73.16C94.7066 72.5147 96.6719 72.104 98.9599 71.928L99.0479 73.336C97.2879 73.512 95.7626 73.8347 94.4719 74.304C93.1812 74.832 91.8906 75.3893 90.5999 75.976C89.3092 76.5627 87.7839 77.12 86.0239 77.648C88.9572 78.2347 92.1546 78.8507 95.6159 79.496C99.0772 80.1413 102.421 80.6987 105.648 81.168C108.875 81.6373 111.632 81.872 113.92 81.872C118.144 81.872 121.459 81.256 123.864 80.024C126.328 78.792 128.205 76.856 129.496 74.216ZM96.3199 8.656C101.893 8.656 106.763 9.91733 110.928 12.44C115.152 14.9627 118.408 18.6 120.696 23.352C123.043 28.0453 124.216 33.7653 124.216 40.512C124.216 47.0827 123.013 52.832 120.608 57.76C118.261 62.688 114.976 66.5307 110.752 69.288C106.528 72.0453 101.688 73.424 96.2319 73.424C90.6586 73.424 85.7599 72.1627 81.5359 69.64C77.3706 67.1173 74.1146 63.48 71.7679 58.728C69.4799 53.976 68.3359 48.256 68.3359 41.568C68.3359 34.9973 69.5386 29.248 71.9439 24.32C74.3492 19.392 77.6346 15.5493 81.7999 12.792C86.0239 10.0347 90.8639 8.656 96.3199 8.656ZM95.9679 10.24C92.1546 10.24 88.8399 11.56 86.0239 14.2C83.2079 16.84 81.0079 20.4773 79.4239 25.112C77.8986 29.7467 77.1359 35.1147 77.1359 41.216C77.1359 47.4347 77.9866 52.8613 79.6879 57.496C81.4479 62.072 83.7946 65.6213 86.7279 68.144C89.7199 70.608 93.0052 71.84 96.5839 71.84C100.397 71.84 103.712 70.52 106.528 67.88C109.344 65.24 111.515 61.6027 113.04 56.968C114.624 52.2747 115.416 46.9067 115.416 40.864C115.416 34.5867 114.536 29.16 112.776 24.584C111.075 20.008 108.757 16.488 105.824 14.024C102.891 11.5013 99.6052 10.24 95.9679 10.24Z" fill="white"/>
<path d="M171.402 25.904V62.688C171.402 65.328 171.872 67.2933 172.81 68.584C173.808 69.816 175.568 70.432 178.09 70.432V72.28C176.272 72.104 174.453 72.016 172.634 72.016C170.933 72.016 169.29 72.104 167.706 72.28C166.181 72.456 164.773 72.7787 163.482 73.248V62.864C162.016 66.6773 159.933 69.4053 157.234 71.048C154.594 72.632 151.866 73.424 149.05 73.424C146.997 73.424 145.208 73.1307 143.682 72.544C142.157 71.9573 140.896 71.136 139.898 70.08C138.784 68.9067 138.021 67.3813 137.61 65.504C137.2 63.6267 136.994 61.3093 136.994 58.552V36.464C136.994 33.824 136.525 31.888 135.586 30.656C134.648 29.3653 132.888 28.72 130.306 28.72V26.872C132.184 27.048 134.002 27.136 135.762 27.136C137.464 27.136 139.077 27.048 140.602 26.872C142.186 26.6373 143.624 26.3147 144.914 25.904V60.488C144.914 62.3067 145.032 63.9787 145.266 65.504C145.501 67.0293 146.088 68.2613 147.026 69.2C147.965 70.1387 149.49 70.608 151.602 70.608C153.89 70.608 155.914 69.904 157.674 68.496C159.493 67.088 160.901 65.1813 161.898 62.776C162.954 60.3707 163.482 57.672 163.482 54.68V36.464C163.482 33.824 163.013 31.888 162.074 30.656C161.136 29.3653 159.376 28.72 156.794 28.72V26.872C158.672 27.048 160.49 27.136 162.25 27.136C163.952 27.136 165.565 27.048 167.09 26.872C168.674 26.6373 170.112 26.3147 171.402 25.904Z" fill="white"/>
<path d="M203.967 25.64C209.13 25.64 213.149 27.224 216.023 30.392C218.957 33.5013 220.423 38.3707 220.423 45H189.359L189.271 43.328H211.975C212.093 40.4533 211.858 37.8133 211.271 35.408C210.685 32.944 209.746 30.9787 208.455 29.512C207.223 28.0453 205.61 27.312 203.615 27.312C200.917 27.312 198.511 28.6613 196.399 31.36C194.346 34.0587 193.114 38.3413 192.703 44.208L192.967 44.56C192.85 45.44 192.762 46.408 192.703 47.464C192.645 48.52 192.615 49.576 192.615 50.632C192.615 54.6213 193.261 58.0533 194.551 60.928C195.842 63.8027 197.514 66.0027 199.567 67.528C201.679 68.9947 203.85 69.728 206.079 69.728C207.839 69.728 209.511 69.464 211.095 68.936C212.679 68.3493 214.146 67.4107 215.495 66.12C216.845 64.8293 218.018 63.0987 219.015 60.928L220.775 61.632C220.13 63.568 219.074 65.4453 217.607 67.264C216.141 69.0827 214.293 70.5787 212.063 71.752C209.834 72.8667 207.253 73.424 204.319 73.424C200.095 73.424 196.458 72.456 193.407 70.52C190.415 68.584 188.098 65.9147 186.455 62.512C184.871 59.0507 184.079 55.0907 184.079 50.632C184.079 45.4693 184.901 41.04 186.543 37.344C188.186 33.5893 190.503 30.7147 193.495 28.72C196.487 26.6667 199.978 25.64 203.967 25.64ZM213.295 0.648C213.999 1.23467 214.381 1.99733 214.439 2.936C214.557 3.87467 214.175 4.93067 213.295 6.104C212.415 7.21866 211.33 8.33333 210.039 9.448C208.749 10.5627 207.223 11.912 205.463 13.496C203.762 15.0213 201.738 17.016 199.391 19.48L198.423 18.688C200.242 15.8133 201.679 13.3493 202.735 11.296C203.85 9.24266 204.789 7.45333 205.551 5.928C206.314 4.40267 207.135 3.08267 208.015 1.968C208.895 0.794668 209.805 0.149335 210.743 0.0319994C211.741 -0.0853325 212.591 0.12 213.295 0.648Z" fill="white"/>
<path d="M263.005 25.904V79.936C263.005 82.4587 263.738 84.1307 265.205 84.952C266.73 85.832 268.813 86.272 271.453 86.272V88.12C270.162 88.0613 268.373 87.9733 266.085 87.856C263.797 87.7973 261.362 87.768 258.781 87.768C256.962 87.768 255.144 87.7973 253.325 87.856C251.565 87.9733 250.216 88.0613 249.277 88.12V86.272C251.389 86.272 252.885 85.8907 253.765 85.128C254.645 84.3653 255.085 82.928 255.085 80.816V36.464C255.085 33.824 254.616 31.888 253.677 30.656C252.738 29.3653 250.978 28.72 248.397 28.72V26.872C250.274 27.048 252.093 27.136 253.853 27.136C255.554 27.136 257.168 27.048 258.693 26.872C260.277 26.6373 261.714 26.3147 263.005 25.904ZM277.085 25.64C280.194 25.64 282.981 26.4907 285.445 28.192C287.909 29.8347 289.845 32.2693 291.253 35.496C292.72 38.7227 293.453 42.712 293.453 47.464C293.453 50.632 293.072 53.7707 292.309 56.88C291.546 59.9307 290.344 62.7173 288.701 65.24C287.117 67.704 285.034 69.6987 282.453 71.224C279.93 72.6907 276.88 73.424 273.301 73.424C270.544 73.424 268.138 72.7787 266.085 71.488C264.09 70.1973 262.741 68.6427 262.037 66.824L262.917 65.592C263.738 67.2347 264.912 68.6133 266.437 69.728C268.021 70.8427 269.986 71.4 272.333 71.4C275.618 71.4 278.17 70.3733 279.989 68.32C281.808 66.2667 283.069 63.5387 283.773 60.136C284.536 56.6747 284.917 52.8613 284.917 48.696C284.917 44.0027 284.536 40.16 283.773 37.168C283.01 34.176 281.866 31.9467 280.341 30.48C278.816 29.0133 276.938 28.28 274.709 28.28C271.834 28.28 269.224 29.4827 266.877 31.888C264.53 34.2347 263.034 37.8133 262.389 42.624L261.333 41.392C261.978 36.4053 263.738 32.5333 266.613 29.776C269.546 27.0187 273.037 25.64 277.085 25.64Z" fill="white"/>
<path d="M340.098 25.904V62.688C340.098 65.328 340.567 67.2933 341.506 68.584C342.503 69.816 344.263 70.432 346.786 70.432V72.28C344.967 72.104 343.148 72.016 341.33 72.016C339.628 72.016 337.986 72.104 336.402 72.28C334.876 72.456 333.468 72.7787 332.178 73.248V62.864C330.711 66.6773 328.628 69.4053 325.93 71.048C323.29 72.632 320.562 73.424 317.746 73.424C315.692 73.424 313.903 73.1307 312.378 72.544C310.852 71.9573 309.591 71.136 308.594 70.08C307.479 68.9067 306.716 67.3813 306.306 65.504C305.895 63.6267 305.69 61.3093 305.69 58.552V36.464C305.69 33.824 305.22 31.888 304.282 30.656C303.343 29.3653 301.583 28.72 299.002 28.72V26.872C300.879 27.048 302.698 27.136 304.458 27.136C306.159 27.136 307.772 27.048 309.298 26.872C310.882 26.6373 312.319 26.3147 313.61 25.904V60.488C313.61 62.3067 313.727 63.9787 313.962 65.504C314.196 67.0293 314.783 68.2613 315.722 69.2C316.66 70.1387 318.186 70.608 320.298 70.608C322.586 70.608 324.61 69.904 326.37 68.496C328.188 67.088 329.596 65.1813 330.594 62.776C331.65 60.3707 332.178 57.672 332.178 54.68V36.464C332.178 33.824 331.708 31.888 330.77 30.656C329.831 29.3653 328.071 28.72 325.49 28.72V26.872C327.367 27.048 329.186 27.136 330.946 27.136C332.647 27.136 334.26 27.048 335.786 26.872C337.37 26.6373 338.807 26.3147 340.098 25.904Z" fill="white"/>
<path d="M372.663 25.64C377.825 25.64 381.844 27.224 384.719 30.392C387.652 33.5013 389.119 38.3707 389.119 45H358.055L357.967 43.328H380.671C380.788 40.4533 380.553 37.8133 379.967 35.408C379.38 32.944 378.441 30.9787 377.151 29.512C375.919 28.0453 374.305 27.312 372.311 27.312C369.612 27.312 367.207 28.6613 365.095 31.36C363.041 34.0587 361.809 38.3413 361.399 44.208L361.663 44.56C361.545 45.44 361.457 46.408 361.399 47.464C361.34 48.52 361.311 49.576 361.311 50.632C361.311 54.6213 361.956 58.0533 363.247 60.928C364.537 63.8027 366.209 66.0027 368.263 67.528C370.375 68.9947 372.545 69.728 374.775 69.728C376.535 69.728 378.207 69.464 379.791 68.936C381.375 68.3493 382.841 67.4107 384.191 66.12C385.54 64.8293 386.713 63.0987 387.711 60.928L389.471 61.632C388.825 63.568 387.769 65.4453 386.303 67.264C384.836 69.0827 382.988 70.5787 380.759 71.752C378.529 72.8667 375.948 73.424 373.015 73.424C368.791 73.424 365.153 72.456 362.103 70.52C359.111 68.584 356.793 65.9147 355.151 62.512C353.567 59.0507 352.775 55.0907 352.775 50.632C352.775 45.4693 353.596 41.04 355.239 37.344C356.881 33.5893 359.199 30.7147 362.191 28.72C365.183 26.6667 368.673 25.64 372.663 25.64Z" fill="white"/>
<path d="M435.834 3.2V62.6C435.834 65.24 436.304 67.2053 437.242 68.496C438.24 69.728 440 70.344 442.522 70.344V72.192C440.704 72.016 438.885 71.928 437.066 71.928C435.365 71.928 433.722 72.016 432.138 72.192C430.613 72.368 429.205 72.6907 427.914 73.16V13.76C427.914 11.12 427.445 9.184 426.506 7.952C425.568 6.66133 423.808 6.016 421.226 6.016V4.168C423.104 4.344 424.922 4.432 426.682 4.432C428.384 4.432 429.997 4.344 431.522 4.168C433.106 3.93333 434.544 3.61067 435.834 3.2ZM417.354 25.64C419.936 25.64 422.341 26.256 424.57 27.488C426.858 28.72 428.384 30.832 429.146 33.824L428.002 34.704C427.181 32.24 425.89 30.4507 424.13 29.336C422.429 28.2213 420.405 27.664 418.058 27.664C414.597 27.664 411.693 29.4533 409.346 33.032C407.058 36.6107 405.944 42.1253 406.002 49.576C406.002 54.328 406.442 58.288 407.322 61.456C408.261 64.5653 409.61 66.912 411.37 68.496C413.189 70.0213 415.389 70.784 417.97 70.784C420.434 70.784 422.664 69.728 424.658 67.616C426.653 65.504 427.856 62.3947 428.266 58.288L429.322 59.52C428.853 63.9787 427.416 67.4107 425.01 69.816C422.664 72.2213 419.466 73.424 415.418 73.424C411.781 73.424 408.584 72.544 405.826 70.784C403.128 69.024 401.045 66.384 399.578 62.864C398.17 59.344 397.466 54.9147 397.466 49.576C397.466 44.2373 398.376 39.808 400.194 36.288C402.072 32.7093 404.506 30.04 407.498 28.28C410.549 26.52 413.834 25.64 417.354 25.64Z" fill="white"/>
<path d="M468.311 25.64C473.474 25.64 477.492 27.224 480.367 30.392C483.3 33.5013 484.767 38.3707 484.767 45H453.703L453.615 43.328H476.319C476.436 40.4533 476.202 37.8133 475.615 35.408C475.028 32.944 474.09 30.9787 472.799 29.512C471.567 28.0453 469.954 27.312 467.959 27.312C465.26 27.312 462.855 28.6613 460.743 31.36C458.69 34.0587 457.458 38.3413 457.047 44.208L457.311 44.56C457.194 45.44 457.106 46.408 457.047 47.464C456.988 48.52 456.959 49.576 456.959 50.632C456.959 54.6213 457.604 58.0533 458.895 60.928C460.186 63.8027 461.858 66.0027 463.911 67.528C466.023 68.9947 468.194 69.728 470.423 69.728C472.183 69.728 473.855 69.464 475.439 68.936C477.023 68.3493 478.49 67.4107 479.839 66.12C481.188 64.8293 482.362 63.0987 483.359 60.928L485.119 61.632C484.474 63.568 483.418 65.4453 481.951 67.264C480.484 69.0827 478.636 70.5787 476.407 71.752C474.178 72.8667 471.596 73.424 468.663 73.424C464.439 73.424 460.802 72.456 457.751 70.52C454.759 68.584 452.442 65.9147 450.799 62.512C449.215 59.0507 448.423 55.0907 448.423 50.632C448.423 45.4693 449.244 41.04 450.887 37.344C452.53 33.5893 454.847 30.7147 457.839 28.72C460.831 26.6667 464.322 25.64 468.311 25.64Z" fill="white"/>
<path d="M524.509 3.288V36.2C526.034 32.2107 528.146 29.4533 530.845 27.928C533.602 26.4027 536.477 25.64 539.469 25.64C541.698 25.64 543.546 25.9333 545.013 26.52C546.538 27.1067 547.799 27.928 548.797 28.984C549.911 30.1573 550.703 31.624 551.173 33.384C551.642 35.144 551.877 37.52 551.877 40.512V64.008C551.877 66.472 552.375 68.144 553.373 69.024C554.429 69.904 556.159 70.344 558.565 70.344V72.192C557.567 72.1333 556.042 72.0747 553.989 72.016C551.935 71.8987 549.941 71.84 548.005 71.84C546.069 71.84 544.162 71.8987 542.285 72.016C540.466 72.0747 539.087 72.1333 538.149 72.192V70.344C540.261 70.344 541.757 69.904 542.637 69.024C543.517 68.144 543.957 66.472 543.957 64.008V38.576C543.957 36.7573 543.81 35.0853 543.517 33.56C543.223 32.0347 542.549 30.8027 541.493 29.864C540.495 28.9253 538.941 28.456 536.829 28.456C534.423 28.456 532.282 29.1307 530.405 30.48C528.586 31.8293 527.149 33.7067 526.093 36.112C525.037 38.5173 524.509 41.2747 524.509 44.384V64.008C524.509 66.472 524.949 68.144 525.829 69.024C526.709 69.904 528.205 70.344 530.317 70.344V72.192C529.378 72.1333 527.97 72.0747 526.093 72.016C524.274 71.8987 522.397 71.84 520.461 71.84C518.525 71.84 516.53 71.8987 514.477 72.016C512.423 72.0747 510.898 72.1333 509.901 72.192V70.344C512.306 70.344 514.007 69.904 515.005 69.024C516.061 68.144 516.589 66.472 516.589 64.008V13.848C516.589 11.208 516.119 9.272 515.181 8.04C514.242 6.74933 512.482 6.104 509.901 6.104V4.256C511.778 4.432 513.597 4.52 515.357 4.52C517.058 4.52 518.671 4.432 520.197 4.256C521.781 4.02134 523.218 3.69867 524.509 3.288Z" fill="white"/>
<path d="M574.923 72.808C572.518 72.808 570.435 72.368 568.675 71.488C566.915 70.5493 565.566 69.2587 564.627 67.616C563.747 65.9733 563.307 64.0667 563.307 61.896C563.307 59.3147 563.894 57.2027 565.067 55.56C566.299 53.9173 567.854 52.5973 569.731 51.6C571.608 50.6027 573.574 49.7813 575.627 49.136C577.739 48.432 579.734 47.7867 581.611 47.2C583.488 46.5547 585.014 45.8213 586.187 45C587.419 44.1787 588.035 43.0933 588.035 41.744V36.288C588.035 33.824 587.654 31.9467 586.891 30.656C586.187 29.3653 585.219 28.5147 583.987 28.104C582.755 27.6347 581.376 27.4 579.851 27.4C578.384 27.4 576.8 27.6053 575.099 28.016C573.456 28.4267 572.136 29.2773 571.139 30.568C572.254 30.8027 573.222 31.3893 574.043 32.328C574.864 33.2667 575.275 34.4693 575.275 35.936C575.275 37.4027 574.806 38.576 573.867 39.456C572.928 40.2773 571.726 40.688 570.259 40.688C568.558 40.688 567.296 40.16 566.475 39.104C565.712 37.9893 565.331 36.7573 565.331 35.408C565.331 33.8827 565.712 32.6507 566.475 31.712C567.238 30.7733 568.206 29.8933 569.379 29.072C570.728 28.1333 572.459 27.3413 574.571 26.696C576.742 25.992 579.176 25.64 581.875 25.64C584.28 25.64 586.334 25.9333 588.035 26.52C589.736 27.048 591.144 27.84 592.259 28.896C593.784 30.304 594.782 32.0347 595.251 34.088C595.72 36.0827 595.955 38.488 595.955 41.304V65.768C595.955 67.2347 596.16 68.2907 596.571 68.936C597.04 69.5813 597.744 69.904 598.683 69.904C599.328 69.904 599.944 69.7573 600.531 69.464C601.118 69.1707 601.822 68.7013 602.643 68.056L603.611 69.552C602.379 70.4907 601.206 71.2827 600.091 71.928C598.976 72.5147 597.48 72.808 595.603 72.808C593.902 72.808 592.494 72.5147 591.379 71.928C590.264 71.3413 589.414 70.4907 588.827 69.376C588.299 68.2027 588.035 66.736 588.035 64.976C586.451 67.616 584.544 69.5813 582.315 70.872C580.144 72.1627 577.68 72.808 574.923 72.808ZM578.091 69.288C580.027 69.288 581.816 68.7307 583.459 67.616C585.16 66.5013 586.686 64.8293 588.035 62.6V45.352C587.331 46.3493 586.304 47.2 584.955 47.904C583.606 48.5493 582.139 49.224 580.555 49.928C578.971 50.5733 577.446 51.3653 575.979 52.304C574.571 53.184 573.398 54.3573 572.459 55.824C571.52 57.2907 571.051 59.1973 571.051 61.544C571.051 63.8907 571.667 65.768 572.899 67.176C574.19 68.584 575.92 69.288 578.091 69.288Z" fill="white"/>
<path d="M628.255 25.64C630.132 25.64 631.951 25.8747 633.711 26.344C635.471 26.8133 637.055 27.5173 638.463 28.456C639.812 29.336 640.839 30.3627 641.543 31.536C642.247 32.6507 642.599 33.8827 642.599 35.232C642.599 36.816 642.159 38.048 641.279 38.928C640.399 39.7493 639.284 40.16 637.935 40.16C636.644 40.16 635.5 39.7787 634.503 39.016C633.564 38.2533 633.095 37.168 633.095 35.76C633.095 34.4107 633.447 33.3253 634.151 32.504C634.914 31.6827 635.794 31.1547 636.791 30.92C636.204 29.864 635.148 28.984 633.623 28.28C632.156 27.576 630.573 27.224 628.871 27.224C627.404 27.224 625.938 27.576 624.471 28.28C623.004 28.984 621.655 30.1573 620.423 31.8C619.191 33.384 618.194 35.584 617.431 38.4C616.668 41.1573 616.287 44.6187 616.287 48.784C616.287 53.9467 616.874 58.0533 618.047 61.104C619.22 64.1547 620.746 66.3547 622.623 67.704C624.559 68.9947 626.671 69.64 628.959 69.64C630.484 69.64 632.039 69.3467 633.623 68.76C635.207 68.1733 636.703 67.2347 638.111 65.944C639.519 64.5947 640.722 62.8053 641.719 60.576L643.391 61.192C642.804 63.0693 641.836 64.976 640.487 66.912C639.138 68.7893 637.378 70.344 635.207 71.576C633.036 72.808 630.367 73.424 627.199 73.424C623.562 73.424 620.276 72.4853 617.343 70.608C614.41 68.7307 612.063 66.0613 610.303 62.6C608.602 59.08 607.751 54.9147 607.751 50.104C607.751 45.2933 608.602 41.0693 610.303 37.432C612.063 33.736 614.498 30.8613 617.607 28.808C620.716 26.696 624.266 25.64 628.255 25.64Z" fill="white"/>
<path d="M670.436 25.64C675.599 25.64 679.617 27.224 682.492 30.392C685.425 33.5013 686.892 38.3707 686.892 45H655.828L655.74 43.328H678.444C678.561 40.4533 678.327 37.8133 677.74 35.408C677.153 32.944 676.215 30.9787 674.924 29.512C673.692 28.0453 672.079 27.312 670.084 27.312C667.385 27.312 664.98 28.6613 662.868 31.36C660.815 34.0587 659.583 38.3413 659.172 44.208L659.436 44.56C659.319 45.44 659.231 46.408 659.172 47.464C659.113 48.52 659.084 49.576 659.084 50.632C659.084 54.6213 659.729 58.0533 661.02 60.928C662.311 63.8027 663.983 66.0027 666.036 67.528C668.148 68.9947 670.319 69.728 672.548 69.728C674.308 69.728 675.98 69.464 677.564 68.936C679.148 68.3493 680.615 67.4107 681.964 66.12C683.313 64.8293 684.487 63.0987 685.484 60.928L687.244 61.632C686.599 63.568 685.543 65.4453 684.076 67.264C682.609 69.0827 680.761 70.5787 678.532 71.752C676.303 72.8667 673.721 73.424 670.788 73.424C666.564 73.424 662.927 72.456 659.876 70.52C656.884 68.584 654.567 65.9147 652.924 62.512C651.34 59.0507 650.548 55.0907 650.548 50.632C650.548 45.4693 651.369 41.04 653.012 37.344C654.655 33.5893 656.972 30.7147 659.964 28.72C662.956 26.6667 666.447 25.64 670.436 25.64Z" fill="white"/>
<path d="M720.936 25.64C722.52 25.64 723.898 25.9627 725.072 26.608C726.304 27.2533 727.242 28.104 727.888 29.16C728.592 30.1573 728.944 31.3013 728.944 32.592C728.944 34.0587 728.474 35.3493 727.536 36.464C726.656 37.5787 725.453 38.136 723.928 38.136C722.696 38.136 721.61 37.7547 720.672 36.992C719.733 36.1707 719.264 35.0267 719.264 33.56C719.264 32.4453 719.557 31.5067 720.144 30.744C720.789 29.9227 721.493 29.2773 722.256 28.808C721.845 28.2213 721.229 27.928 720.408 27.928C718.589 27.928 716.917 28.4853 715.392 29.6C713.866 30.656 712.576 32.0347 711.52 33.736C710.464 35.4373 709.642 37.256 709.056 39.192C708.469 41.0693 708.176 42.8293 708.176 44.472V63.128C708.176 66.0027 708.997 67.9387 710.64 68.936C712.341 69.8747 714.629 70.344 717.504 70.344V72.192C716.154 72.1333 714.248 72.0747 711.784 72.016C709.32 71.8987 706.709 71.84 703.952 71.84C701.957 71.84 699.962 71.8987 697.968 72.016C696.032 72.0747 694.565 72.1333 693.568 72.192V70.344C695.973 70.344 697.674 69.904 698.672 69.024C699.728 68.144 700.256 66.472 700.256 64.008V36.464C700.256 33.824 699.786 31.888 698.848 30.656C697.909 29.3653 696.149 28.72 693.568 28.72V26.872C695.445 27.048 697.264 27.136 699.024 27.136C700.725 27.136 702.338 27.048 703.864 26.872C705.448 26.6373 706.885 26.3147 708.176 25.904V36.904C708.821 35.2027 709.73 33.5013 710.904 31.8C712.136 30.04 713.602 28.5733 715.304 27.4C717.005 26.2267 718.882 25.64 720.936 25.64Z" fill="white"/>
<path d="M266.185 232.904V286.936C266.185 289.459 266.918 291.131 268.385 291.952C269.91 292.832 271.993 293.272 274.633 293.272V295.12C273.342 295.061 271.553 294.973 269.265 294.856C266.977 294.797 264.542 294.768 261.961 294.768C260.142 294.768 258.323 294.797 256.505 294.856C254.745 294.973 253.395 295.061 252.457 295.12V293.272C254.569 293.272 256.065 292.891 256.945 292.128C257.825 291.365 258.265 289.928 258.265 287.816V243.464C258.265 240.824 257.795 238.888 256.857 237.656C255.918 236.365 254.158 235.72 251.577 235.72V233.872C253.454 234.048 255.273 234.136 257.033 234.136C258.734 234.136 260.347 234.048 261.873 233.872C263.457 233.637 264.894 233.315 266.185 232.904ZM280.265 232.64C283.374 232.64 286.161 233.491 288.625 235.192C291.089 236.835 293.025 239.269 294.433 242.496C295.899 245.723 296.633 249.712 296.633 254.464C296.633 257.632 296.251 260.771 295.489 263.88C294.726 266.931 293.523 269.717 291.881 272.24C290.297 274.704 288.214 276.699 285.633 278.224C283.11 279.691 280.059 280.424 276.481 280.424C273.723 280.424 271.318 279.779 269.265 278.488C267.27 277.197 265.921 275.643 265.217 273.824L266.097 272.592C266.918 274.235 268.091 275.613 269.617 276.728C271.201 277.843 273.166 278.4 275.513 278.4C278.798 278.4 281.35 277.373 283.169 275.32C284.987 273.267 286.249 270.539 286.953 267.136C287.715 263.675 288.097 259.861 288.097 255.696C288.097 251.003 287.715 247.16 286.953 244.168C286.19 241.176 285.046 238.947 283.521 237.48C281.995 236.013 280.118 235.28 277.889 235.28C275.014 235.28 272.403 236.483 270.057 238.888C267.71 241.235 266.214 244.813 265.569 249.624L264.513 248.392C265.158 243.405 266.918 239.533 269.793 236.776C272.726 234.019 276.217 232.64 280.265 232.64Z" fill="white"/>
<path d="M324.885 232.64C328.64 232.64 332.013 233.461 335.005 235.104C337.997 236.747 340.373 239.328 342.133 242.848C343.952 246.368 344.861 250.944 344.861 256.576C344.861 262.208 343.952 266.784 342.133 270.304C340.373 273.765 337.997 276.317 335.005 277.96C332.013 279.603 328.64 280.424 324.885 280.424C321.189 280.424 317.816 279.603 314.765 277.96C311.773 276.317 309.368 273.765 307.549 270.304C305.789 266.784 304.909 262.208 304.909 256.576C304.909 250.944 305.789 246.368 307.549 242.848C309.368 239.328 311.773 236.747 314.765 235.104C317.816 233.461 321.189 232.64 324.885 232.64ZM324.885 234.4C321.541 234.4 318.784 236.131 316.613 239.592C314.501 243.053 313.445 248.715 313.445 256.576C313.445 264.437 314.501 270.099 316.613 273.56C318.784 276.963 321.541 278.664 324.885 278.664C328.229 278.664 330.957 276.963 333.069 273.56C335.24 270.099 336.325 264.437 336.325 256.576C336.325 248.715 335.24 243.053 333.069 239.592C330.957 236.131 328.229 234.4 324.885 234.4Z" fill="white"/>
<path d="M378.904 232.64C380.488 232.64 381.867 232.963 383.04 233.608C384.272 234.253 385.211 235.104 385.856 236.16C386.56 237.157 386.912 238.301 386.912 239.592C386.912 241.059 386.443 242.349 385.504 243.464C384.624 244.579 383.422 245.136 381.896 245.136C380.664 245.136 379.579 244.755 378.64 243.992C377.702 243.171 377.232 242.027 377.232 240.56C377.232 239.445 377.526 238.507 378.112 237.744C378.758 236.923 379.462 236.277 380.224 235.808C379.814 235.221 379.198 234.928 378.376 234.928C376.558 234.928 374.886 235.485 373.36 236.6C371.835 237.656 370.544 239.035 369.488 240.736C368.432 242.437 367.611 244.256 367.024 246.192C366.438 248.069 366.144 249.829 366.144 251.472V270.128C366.144 273.003 366.966 274.939 368.608 275.936C370.31 276.875 372.598 277.344 375.472 277.344V279.192C374.123 279.133 372.216 279.075 369.752 279.016C367.288 278.899 364.678 278.84 361.92 278.84C359.926 278.84 357.931 278.899 355.936 279.016C354 279.075 352.534 279.133 351.536 279.192V277.344C353.942 277.344 355.643 276.904 356.64 276.024C357.696 275.144 358.224 273.472 358.224 271.008V243.464C358.224 240.824 357.755 238.888 356.816 237.656C355.878 236.365 354.118 235.72 351.536 235.72V233.872C353.414 234.048 355.232 234.136 356.992 234.136C358.694 234.136 360.307 234.048 361.832 233.872C363.416 233.637 364.854 233.315 366.144 232.904V243.904C366.79 242.203 367.699 240.501 368.872 238.8C370.104 237.04 371.571 235.573 373.272 234.4C374.974 233.227 376.851 232.64 378.904 232.64Z" fill="white"/>
<path d="M423.798 219.264V233.96H436.822V235.72H423.798V269.776C423.798 272.533 424.297 274.469 425.294 275.584C426.291 276.699 427.67 277.256 429.43 277.256C431.19 277.256 432.715 276.552 434.006 275.144C435.297 273.677 436.411 271.243 437.35 267.84L439.11 268.28C438.523 271.683 437.35 274.557 435.59 276.904C433.889 279.251 431.249 280.424 427.67 280.424C425.675 280.424 424.033 280.16 422.742 279.632C421.451 279.163 420.307 278.459 419.31 277.52C418.019 276.171 417.11 274.557 416.582 272.68C416.113 270.803 415.878 268.309 415.878 265.2V235.72H407.43V233.96H415.878V220.496C417.345 220.437 418.753 220.32 420.102 220.144C421.451 219.968 422.683 219.675 423.798 219.264Z" fill="white"/>
<path d="M450.772 211.872C452.297 211.872 453.617 212.429 454.732 213.544C455.846 214.659 456.404 215.979 456.404 217.504C456.404 219.029 455.846 220.349 454.732 221.464C453.617 222.579 452.297 223.136 450.772 223.136C449.246 223.136 447.926 222.579 446.812 221.464C445.697 220.349 445.14 219.029 445.14 217.504C445.14 215.979 445.697 214.659 446.812 213.544C447.926 212.429 449.246 211.872 450.772 211.872ZM455.348 232.904V271.008C455.348 273.472 455.846 275.144 456.844 276.024C457.9 276.904 459.63 277.344 462.036 277.344V279.192C461.038 279.133 459.513 279.075 457.46 279.016C455.465 278.899 453.441 278.84 451.388 278.84C449.393 278.84 447.369 278.899 445.316 279.016C443.262 279.075 441.737 279.133 440.74 279.192V277.344C443.145 277.344 444.846 276.904 445.844 276.024C446.9 275.144 447.428 273.472 447.428 271.008V243.464C447.428 240.824 446.958 238.888 446.02 237.656C445.081 236.365 443.321 235.72 440.74 235.72V233.872C442.617 234.048 444.436 234.136 446.196 234.136C447.897 234.136 449.51 234.048 451.036 233.872C452.62 233.637 454.057 233.315 455.348 232.904Z" fill="white"/>
<path d="M482.889 210.376C486.585 210.376 489.811 211.021 492.569 212.312C495.326 213.544 497.467 215.363 498.993 217.768C500.577 220.115 501.369 222.931 501.369 226.216C501.369 229.501 500.518 232.435 498.817 235.016C497.174 237.597 494.857 239.797 491.865 241.616C488.931 243.376 485.499 244.755 481.569 245.752V258.6H479.809V244.96C483.739 243.493 486.673 241.88 488.609 240.12C490.545 238.36 491.835 236.453 492.481 234.4C493.185 232.347 493.537 230.176 493.537 227.888C493.537 222.315 492.393 218.296 490.105 215.832C487.817 213.368 484.854 212.136 481.217 212.136C479.809 212.136 478.254 212.341 476.553 212.752C474.91 213.163 473.59 214.013 472.593 215.304C473.707 215.539 474.587 216.037 475.233 216.8C475.937 217.563 476.289 218.56 476.289 219.792C476.289 221.259 475.819 222.432 474.881 223.312C473.942 224.133 472.798 224.544 471.449 224.544C470.099 224.544 468.985 224.104 468.105 223.224C467.225 222.344 466.785 221.229 466.785 219.88C466.785 218.648 467.166 217.504 467.929 216.448C468.691 215.333 469.689 214.365 470.921 213.544C472.153 212.723 473.737 211.989 475.673 211.344C477.667 210.699 480.073 210.376 482.889 210.376ZM480.777 269.16C482.302 269.16 483.622 269.717 484.737 270.832C485.851 271.947 486.409 273.267 486.409 274.792C486.409 276.317 485.851 277.637 484.737 278.752C483.622 279.867 482.302 280.424 480.777 280.424C479.251 280.424 477.931 279.867 476.817 278.752C475.702 277.637 475.145 276.317 475.145 274.792C475.145 273.267 475.702 271.947 476.817 270.832C477.931 269.717 479.251 269.16 480.777 269.16Z" fill="white"/>
<path d="M110.724 181.292C105.724 181.292 101.19 180.225 97.1235 178.092C93.1235 175.892 89.9569 172.859 87.6235 168.992C85.2902 165.059 84.1235 160.525 84.1235 155.392C84.1235 150.125 85.2569 145.559 87.5235 141.692C89.8569 137.825 93.0235 134.825 97.0235 132.692C101.024 130.492 105.59 129.392 110.724 129.392C115.19 129.392 118.99 130.059 122.124 131.392C125.257 132.725 127.79 134.592 129.724 136.992C131.657 139.325 133.057 142.059 133.924 145.192C134.857 148.325 135.324 151.725 135.324 155.392C135.324 158.325 134.857 161.325 133.924 164.392C132.99 167.392 131.557 170.192 129.624 172.792C127.69 175.325 125.157 177.392 122.024 178.992C118.89 180.525 115.124 181.292 110.724 181.292ZM114.924 171.292C118.857 171.292 122.257 170.625 125.124 169.292C127.99 167.959 130.19 166.092 131.724 163.692C133.257 161.292 134.024 158.525 134.024 155.392C134.024 151.992 133.224 149.125 131.624 146.792C130.09 144.392 127.89 142.559 125.024 141.292C122.224 140.025 118.857 139.392 114.924 139.392C109.39 139.392 105.09 140.859 102.024 143.792C98.9569 146.725 97.4235 150.592 97.4235 155.392C97.4235 158.592 98.1569 161.392 99.6235 163.792C101.09 166.125 103.124 167.959 105.724 169.292C108.39 170.625 111.457 171.292 114.924 171.292ZM134.024 110.492H147.024V180.192H134.924C134.724 178.659 134.524 176.692 134.324 174.292C134.124 171.825 134.024 169.525 134.024 167.392V110.492Z" fill="white"/>
<path d="M175.935 108.692V120.092H160.835V108.692H175.935ZM161.835 130.492H174.835V180.192H161.835V130.492Z" fill="white"/>
<path d="M233.093 163.692H245.693C245.16 167.092 243.726 170.125 241.393 172.792C239.126 175.459 236.026 177.559 232.093 179.092C228.16 180.625 223.36 181.392 217.693 181.392C211.36 181.392 205.76 180.392 200.893 178.392C196.026 176.325 192.226 173.359 189.493 169.492C186.76 165.625 185.393 160.959 185.393 155.492C185.393 150.025 186.726 145.359 189.393 141.492C192.06 137.559 195.76 134.559 200.493 132.492C205.293 130.425 210.893 129.392 217.293 129.392C223.826 129.392 229.26 130.425 233.593 132.492C237.926 134.559 241.126 137.692 243.193 141.892C245.326 146.025 246.226 151.325 245.893 157.792H198.493C198.826 160.325 199.76 162.625 201.293 164.692C202.893 166.759 205.026 168.392 207.693 169.592C210.426 170.792 213.66 171.392 217.393 171.392C221.526 171.392 224.96 170.692 227.693 169.292C230.493 167.825 232.293 165.959 233.093 163.692ZM216.693 139.292C211.893 139.292 207.993 140.359 204.993 142.492C201.993 144.559 200.06 147.125 199.193 150.192H232.993C232.66 146.859 231.06 144.225 228.193 142.292C225.393 140.292 221.56 139.292 216.693 139.292Z" fill="white"/>
<path d="M280.366 172.592C274.966 172.592 270.2 171.792 266.066 170.192C262 168.525 258.833 166.092 256.566 162.892C254.3 159.692 253.167 155.825 253.167 151.292C253.167 146.825 254.266 142.959 256.466 139.692C258.666 136.425 261.8 133.892 265.866 132.092C270 130.292 274.833 129.392 280.366 129.392C281.9 129.392 283.367 129.492 284.767 129.692C286.233 129.892 287.667 130.159 289.066 130.492L314.167 130.592V140.392C310.767 140.459 307.3 140.059 303.767 139.192C300.3 138.259 297.233 137.259 294.566 136.192L294.267 135.492C296.533 136.559 298.667 137.892 300.667 139.492C302.667 141.025 304.266 142.825 305.466 144.892C306.733 146.892 307.366 149.225 307.366 151.892C307.366 156.225 306.266 159.959 304.066 163.092C301.867 166.159 298.733 168.525 294.667 170.192C290.667 171.792 285.9 172.592 280.366 172.592ZM297.066 200.692V198.292C297.066 195.225 296.066 193.092 294.066 191.892C292.133 190.692 289.466 190.092 286.066 190.092H270.566C267.566 190.092 265.033 189.859 262.966 189.392C260.966 188.925 259.367 188.259 258.167 187.392C256.967 186.525 256.1 185.492 255.566 184.292C255.033 183.159 254.767 181.925 254.767 180.592C254.767 177.925 255.633 175.925 257.366 174.592C259.1 173.192 261.433 172.259 264.366 171.792C267.3 171.325 270.533 171.225 274.066 171.492L280.366 172.592C276.166 172.725 273.033 173.092 270.966 173.692C268.966 174.225 267.966 175.325 267.966 176.992C267.966 177.992 268.367 178.792 269.167 179.392C269.967 179.925 271.1 180.192 272.566 180.192H288.866C293.333 180.192 297.133 180.659 300.267 181.592C303.467 182.592 305.9 184.225 307.566 186.492C309.233 188.825 310.066 191.992 310.066 195.992V200.692H297.066ZM280.366 163.192C283.233 163.192 285.733 162.725 287.866 161.792C290.066 160.859 291.766 159.525 292.966 157.792C294.166 155.992 294.767 153.859 294.767 151.392C294.767 148.859 294.166 146.692 292.966 144.892C291.766 143.092 290.1 141.725 287.966 140.792C285.833 139.792 283.3 139.292 280.366 139.292C277.5 139.292 274.967 139.792 272.767 140.792C270.567 141.725 268.867 143.092 267.667 144.892C266.467 146.692 265.866 148.859 265.866 151.392C265.866 153.859 266.467 155.992 267.667 157.792C268.867 159.525 270.533 160.859 272.667 161.792C274.867 162.725 277.433 163.192 280.366 163.192Z" fill="white"/>
<path d="M351.077 181.392C344.811 181.392 339.277 180.392 334.477 178.392C329.744 176.392 326.044 173.492 323.377 169.692C320.711 165.825 319.377 161.092 319.377 155.492C319.377 149.892 320.711 145.159 323.377 141.292C326.044 137.359 329.744 134.392 334.477 132.392C339.277 130.392 344.811 129.392 351.077 129.392C357.344 129.392 362.811 130.392 367.477 132.392C372.211 134.392 375.911 137.359 378.577 141.292C381.244 145.159 382.577 149.892 382.577 155.492C382.577 161.092 381.244 165.825 378.577 169.692C375.911 173.492 372.211 176.392 367.477 178.392C362.811 180.392 357.344 181.392 351.077 181.392ZM351.077 171.392C354.544 171.392 357.644 170.792 360.377 169.592C363.177 168.325 365.377 166.525 366.977 164.192C368.577 161.792 369.377 158.892 369.377 155.492C369.377 152.092 368.577 149.192 366.977 146.792C365.377 144.325 363.211 142.459 360.477 141.192C357.744 139.925 354.611 139.292 351.077 139.292C347.611 139.292 344.477 139.925 341.677 141.192C338.877 142.459 336.644 144.292 334.977 146.692C333.377 149.092 332.577 152.025 332.577 155.492C332.577 158.892 333.377 161.792 334.977 164.192C336.577 166.525 338.777 168.325 341.577 169.592C344.377 170.792 347.544 171.392 351.077 171.392Z" fill="white"/>
<path d="M454.609 181.292C450.209 181.292 446.442 180.525 443.309 178.992C440.175 177.392 437.642 175.325 435.709 172.792C433.775 170.192 432.342 167.392 431.409 164.392C430.475 161.325 430.009 158.325 430.009 155.392C430.009 151.725 430.442 148.325 431.309 145.192C432.242 142.059 433.675 139.325 435.609 136.992C437.542 134.592 440.075 132.725 443.209 131.392C446.342 130.059 450.142 129.392 454.609 129.392C459.742 129.392 464.275 130.492 468.209 132.692C472.209 134.825 475.342 137.825 477.609 141.692C479.942 145.559 481.109 150.125 481.109 155.392C481.109 160.525 479.942 165.059 477.609 168.992C475.275 172.859 472.109 175.892 468.109 178.092C464.109 180.225 459.609 181.292 454.609 181.292ZM450.409 171.292C453.942 171.292 457.009 170.625 459.609 169.292C462.209 167.959 464.209 166.125 465.609 163.792C467.075 161.392 467.809 158.592 467.809 155.392C467.809 150.592 466.275 146.725 463.209 143.792C460.209 140.859 455.942 139.392 450.409 139.392C446.542 139.392 443.175 140.025 440.309 141.292C437.442 142.559 435.209 144.392 433.609 146.792C432.075 149.125 431.309 151.992 431.309 155.392C431.309 158.525 432.075 161.292 433.609 163.692C435.142 166.092 437.342 167.959 440.209 169.292C443.075 170.625 446.475 171.292 450.409 171.292ZM431.309 110.492V167.392C431.309 169.525 431.209 171.825 431.009 174.292C430.809 176.692 430.609 178.659 430.409 180.192H418.309V110.492H431.309Z" fill="white"/>
<path d="M520.023 181.392C513.756 181.392 508.223 180.392 503.423 178.392C498.689 176.392 494.989 173.492 492.323 169.692C489.656 165.825 488.323 161.092 488.323 155.492C488.323 149.892 489.656 145.159 492.323 141.292C494.989 137.359 498.689 134.392 503.423 132.392C508.223 130.392 513.756 129.392 520.023 129.392C526.289 129.392 531.756 130.392 536.423 132.392C541.156 134.392 544.856 137.359 547.523 141.292C550.189 145.159 551.523 149.892 551.523 155.492C551.523 161.092 550.189 165.825 547.523 169.692C544.856 173.492 541.156 176.392 536.423 178.392C531.756 180.392 526.289 181.392 520.023 181.392ZM520.023 171.392C523.489 171.392 526.589 170.792 529.323 169.592C532.123 168.325 534.323 166.525 535.923 164.192C537.523 161.792 538.323 158.892 538.323 155.492C538.323 152.092 537.523 149.192 535.923 146.792C534.323 144.325 532.156 142.459 529.423 141.192C526.689 139.925 523.556 139.292 520.023 139.292C516.556 139.292 513.423 139.925 510.623 141.192C507.823 142.459 505.589 144.292 503.923 146.692C502.323 149.092 501.523 152.025 501.523 155.492C501.523 158.892 502.323 161.792 503.923 164.192C505.523 166.525 507.723 168.325 510.523 169.592C513.323 170.792 516.489 171.392 520.023 171.392Z" fill="white"/>
<path d="M561.133 130.492H574.133V180.192H561.133V130.492ZM593.233 141.192C589.5 141.192 586.266 141.925 583.533 143.392C580.8 144.792 578.6 146.525 576.933 148.592C575.266 150.659 574.1 152.659 573.433 154.592L573.333 149.092C573.4 148.292 573.666 147.125 574.133 145.592C574.6 143.992 575.3 142.292 576.233 140.492C577.166 138.625 578.4 136.859 579.933 135.192C581.466 133.459 583.333 132.059 585.533 130.992C587.733 129.925 590.3 129.392 593.233 129.392V141.192Z" fill="white"/>
<path d="M601.27 130.492H614.27V180.192H601.27V130.492ZM633.37 141.192C629.636 141.192 626.403 141.925 623.67 143.392C620.936 144.792 618.736 146.525 617.07 148.592C615.403 150.659 614.236 152.659 613.57 154.592L613.47 149.092C613.536 148.292 613.803 147.125 614.27 145.592C614.736 143.992 615.436 142.292 616.37 140.492C617.303 138.625 618.536 136.859 620.07 135.192C621.603 133.459 623.47 132.059 625.67 130.992C627.87 129.925 630.436 129.392 633.37 129.392V141.192Z" fill="white"/>
<path d="M686.706 163.692H699.306C698.773 167.092 697.34 170.125 695.006 172.792C692.74 175.459 689.64 177.559 685.706 179.092C681.773 180.625 676.973 181.392 671.306 181.392C664.973 181.392 659.373 180.392 654.506 178.392C649.64 176.325 645.84 173.359 643.106 169.492C640.373 165.625 639.006 160.959 639.006 155.492C639.006 150.025 640.34 145.359 643.006 141.492C645.673 137.559 649.373 134.559 654.106 132.492C658.906 130.425 664.506 129.392 670.906 129.392C677.44 129.392 682.873 130.425 687.206 132.492C691.54 134.559 694.74 137.692 696.806 141.892C698.94 146.025 699.84 151.325 699.506 157.792H652.106C652.44 160.325 653.373 162.625 654.906 164.692C656.506 166.759 658.64 168.392 661.306 169.592C664.04 170.792 667.273 171.392 671.006 171.392C675.14 171.392 678.573 170.692 681.306 169.292C684.106 167.825 685.906 165.959 686.706 163.692ZM670.306 139.292C665.506 139.292 661.606 140.359 658.606 142.492C655.606 144.559 653.673 147.125 652.806 150.192H686.606C686.273 146.859 684.673 144.225 681.806 142.292C679.006 140.292 675.173 139.292 670.306 139.292Z" fill="white"/>
<path d="M710.18 110.492H723.18V180.192H710.18V110.492Z" fill="white"/>
<path d="M737.328 110.492H750.328V180.192H737.328V110.492Z" fill="white"/>
</svg>
