<svg width="534" height="51" viewBox="0 0 534 51" fill="none" xmlns="http://www.w3.org/2000/svg">
<path fill-rule="evenodd" clip-rule="evenodd" d="M16.913 25.3546C16.5454 17.9608 15.2842 10.8466 14.2354 6.56328L15.2067 6.32544C16.2687 10.6625 17.5406 17.8399 17.9118 25.3049C18.2821 32.7522 17.761 40.5678 15.1743 46.1275L14.2677 45.7057C16.7471 40.3765 17.2815 32.7662 16.913 25.3546Z" fill="#DF38E1"/>
<path fill-rule="evenodd" clip-rule="evenodd" d="M416.332 42.5879C364.874 44.0343 302.85 44.375 255.334 41.6515C179.367 37.2974 56.2514 39.8373 4.18376 41.6521L4.14893 40.6527C56.2186 38.8378 179.374 36.2962 255.391 40.6532C302.865 43.3742 364.856 43.0344 416.304 41.5883C442.026 40.8653 465.109 39.866 482.418 38.8349C491.074 38.3193 498.282 37.796 503.655 37.2956C506.342 37.0454 508.565 36.8012 510.279 36.5672C512.006 36.3314 513.181 36.11 513.793 35.9126L514.1 36.8644C513.393 37.0923 512.136 37.3229 510.414 37.558C508.681 37.7947 506.441 38.0404 503.748 38.2913C498.36 38.7931 491.139 39.3172 482.478 39.8331C465.156 40.865 442.062 41.8647 416.332 42.5879Z" fill="#DF38E1"/>
<path fill-rule="evenodd" clip-rule="evenodd" d="M457.551 8.45732C438.819 9.12902 415.713 9.95757 384.122 9.66657C325.026 9.12221 107.613 12.6155 6.28622 14.4304L6.26831 13.4306C107.587 11.6158 325.018 8.12209 384.131 8.66661C415.699 8.9574 438.782 8.12967 457.513 7.45802C460.694 7.34397 463.749 7.23443 466.699 7.13562C487.018 6.45499 502.36 6.28299 519.294 8.67149L519.154 9.66169C502.313 7.2863 487.047 7.45459 466.732 8.13506C463.784 8.2338 460.731 8.3433 457.551 8.45732Z" fill="#DF38E1"/>
<path fill-rule="evenodd" clip-rule="evenodd" d="M510.292 43.0837C515.342 20.8332 512.378 5.84079 510.323 1.20248L511.237 0.797363C513.404 5.68683 516.35 20.9111 511.268 43.305L510.292 43.0837Z" fill="#DF38E1"/>
<path fill-rule="evenodd" clip-rule="evenodd" d="M428.337 11.0275C378.07 12.3886 317.113 13.7499 258.529 13.7499C164.796 13.7499 49.8855 10.12 4.14648 8.30503L4.18613 7.30581C49.919 9.12051 164.815 12.7499 258.529 12.7499C317.099 12.7499 378.046 11.3889 428.31 10.0278C444.181 9.59806 458.989 9.16823 472.321 8.78122C501.205 7.9428 523.162 7.30542 534 7.30542V8.30542C523.177 8.30542 501.246 8.94204 472.377 9.78005C459.04 10.1672 444.224 10.5973 428.337 11.0275Z" fill="#DF38E1"/>
<path fill-rule="evenodd" clip-rule="evenodd" d="M146.633 42.6947C204.9 40.5166 422.118 36.7962 523.438 35.2083L523.453 36.2081C422.127 37.7961 204.924 41.5164 146.67 43.694C88.3711 45.8732 25.2245 39.6087 0.930664 36.2033L1.06948 35.213C25.3262 38.6132 88.4108 44.871 146.633 42.6947Z" fill="#DF38E1"/>
<path fill-rule="evenodd" clip-rule="evenodd" d="M11.0816 27.8082C11.5139 18.2676 12.9953 8.0688 14.2298 1.58691L15.2122 1.77401C13.984 8.22267 12.5102 18.3725 12.0805 27.8534C11.8657 32.5947 11.9127 37.1538 12.3776 40.9926C12.845 44.8527 13.7261 47.9009 15.1161 49.6935L14.3259 50.3063C12.7607 48.2878 11.8563 45.0068 11.3848 41.1128C10.9108 37.1976 10.8654 32.5777 11.0816 27.8082Z" fill="#DF38E1"/>
<path fill-rule="evenodd" clip-rule="evenodd" d="M510.737 27.0209C509.086 18.1731 508.346 7.8344 508.169 1.0129L509.169 0.987061C509.345 7.77667 510.082 18.0588 511.72 26.8374C512.54 31.2298 513.581 35.2194 514.877 38.2014C515.525 39.6925 516.228 40.9106 516.984 41.7978C517.739 42.6853 518.522 43.2127 519.329 43.3861L519.119 44.3638C518.026 44.1289 517.065 43.4356 516.222 42.4462C515.379 41.4566 514.63 40.1417 513.96 38.6001C512.619 35.5166 511.562 31.4417 510.737 27.0209Z" fill="#DF38E1"/>
<path d="M55.0678 38.9999V28.0799C55.0678 26.9866 54.8812 26.0799 54.5078 25.3599C54.1345 24.6399 53.5345 24.0932 52.7078 23.7199C51.9078 23.3466 50.8278 23.1599 49.4678 23.1599C48.1612 23.1599 46.9745 23.4132 45.9078 23.9199C44.8412 24.3999 43.9745 25.0399 43.3078 25.8399C42.6412 26.6132 42.2678 27.4399 42.1878 28.3199L42.1478 26.1199C42.2812 25.2399 42.5878 24.3599 43.0678 23.4799C43.5478 22.5999 44.1878 21.7999 44.9878 21.0799C45.7878 20.3599 46.7478 19.7866 47.8678 19.3599C49.0145 18.9066 50.2945 18.6799 51.7078 18.6799C52.9345 18.6799 54.0678 18.8399 55.1078 19.1599C56.1478 19.4532 57.0545 19.9199 57.8278 20.5599C58.6012 21.1999 59.2012 21.9999 59.6278 22.9599C60.0545 23.8932 60.2678 24.9999 60.2678 26.2799V38.9999H55.0678ZM37.2678 38.9999V11.1199H42.4678V38.9999H37.2678Z" fill="white"/>
<path d="M70.9538 10.3999V14.9599H64.9138V10.3999H70.9538ZM65.3138 19.1199H70.5138V38.9999H65.3138V19.1199Z" fill="white"/>
<path d="M94.6969 41.1999C90.6969 41.1999 87.2436 40.5999 84.3369 39.3999C81.4569 38.1999 79.2436 36.4799 77.6969 34.2399C76.1502 31.9732 75.3769 29.2666 75.3769 26.1199C75.3769 22.9466 76.1502 20.2799 77.6969 18.1199C79.2702 15.9599 81.5236 14.3332 84.4569 13.2399C87.3902 12.1199 90.8969 11.5599 94.9769 11.5599C99.0835 11.5599 102.564 12.1199 105.417 13.2399C108.297 14.3332 110.484 15.9466 111.977 18.0799C113.497 20.1866 114.257 22.7732 114.257 25.8399C114.257 27.3866 114.004 28.7199 113.497 29.8399C112.99 30.9332 112.23 31.7866 111.217 32.3999C110.23 32.9866 108.99 33.2799 107.497 33.2799C106.297 33.2799 105.27 33.1199 104.417 32.7999C103.564 32.4799 102.87 32.0532 102.337 31.5199C101.804 30.9866 101.404 30.3999 101.137 29.7599C100.897 29.1199 100.777 28.4799 100.777 27.8399V19.1999H105.977V26.1599C105.977 26.8799 106.03 27.5199 106.137 28.0799C106.27 28.6132 106.51 29.0399 106.857 29.3599C107.204 29.6799 107.697 29.8399 108.337 29.8399C108.977 29.8399 109.457 29.6799 109.777 29.3599C110.124 29.0399 110.35 28.5866 110.457 27.9999C110.59 27.4132 110.657 26.7466 110.657 25.9999C110.657 24.0799 110.297 22.4266 109.577 21.0399C108.884 19.6266 107.857 18.4666 106.497 17.5599C105.164 16.6266 103.524 15.9332 101.577 15.4799C99.6569 15.0266 97.4836 14.7999 95.0569 14.7999C92.6036 14.7999 90.3902 15.0266 88.4169 15.4799C86.4436 15.9332 84.7502 16.6266 83.3369 17.5599C81.9236 18.4932 80.8436 19.6666 80.0969 21.0799C79.3502 22.4932 78.9769 24.1732 78.9769 26.1199C78.9769 28.6266 79.6035 30.7732 80.8569 32.5599C82.1102 34.3199 83.9102 35.6666 86.2569 36.5999C88.6035 37.5066 91.4169 37.9599 94.6969 37.9599C96.0302 37.9599 97.2702 37.8932 98.4169 37.7599C99.5902 37.6266 100.657 37.4399 101.617 37.1999C102.577 36.9599 103.39 36.6799 104.057 36.3599L105.497 39.2799C104.697 39.6532 103.737 39.9866 102.617 40.2799C101.524 40.5732 100.297 40.7999 98.9369 40.9599C97.6035 41.1199 96.1902 41.1999 94.6969 41.1999ZM92.0969 34.5599C90.2569 34.5599 88.6302 34.2132 87.2169 33.5199C85.8302 32.7999 84.7502 31.8266 83.9769 30.5999C83.2035 29.3732 82.8169 27.9732 82.8169 26.3999C82.8169 24.7466 83.2035 23.2932 83.9769 22.0399C84.7502 20.7599 85.8569 19.7599 87.2969 19.0399C88.7369 18.2932 90.4302 17.9199 92.3769 17.9199C94.3769 17.9199 96.0302 18.3199 97.3369 19.1199C98.6702 19.8932 99.6569 20.9332 100.297 22.2399C100.964 23.5199 101.297 24.9066 101.297 26.3999C101.297 27.1732 101.097 28.0266 100.697 28.9599C100.324 29.8932 99.7502 30.7866 98.9769 31.6399C98.2302 32.4932 97.2702 33.1999 96.0969 33.7599C94.9502 34.2932 93.6169 34.5599 92.0969 34.5599ZM93.7769 30.5999C94.7369 30.5999 95.6436 30.4932 96.4969 30.2799C97.3502 30.0399 98.0969 29.7332 98.7369 29.3599C99.3769 28.9866 99.8702 28.5466 100.217 28.0399C100.59 27.5332 100.777 26.9999 100.777 26.4399C100.777 25.7199 100.59 25.0932 100.217 24.5599C99.8435 23.9999 99.3369 23.5332 98.6969 23.1599C98.0569 22.7599 97.3102 22.4666 96.4569 22.2799C95.6302 22.0666 94.7369 21.9599 93.7769 21.9599C91.7769 21.9599 90.3369 22.3599 89.4569 23.1599C88.5769 23.9599 88.1369 25.0532 88.1369 26.4399C88.1369 27.6666 88.6035 28.6666 89.5369 29.4399C90.4969 30.2132 91.9102 30.5999 93.7769 30.5999Z" fill="white"/>
<path d="M128.307 39.4399C126.307 39.4399 124.493 39.0132 122.867 38.1599C121.267 37.2799 120 36.0666 119.067 34.5199C118.133 32.9466 117.667 31.1332 117.667 29.0799C117.667 26.9732 118.12 25.1466 119.027 23.5999C119.96 22.0532 121.227 20.8532 122.827 19.9999C124.427 19.1199 126.253 18.6799 128.307 18.6799C130.093 18.6799 131.613 18.9466 132.867 19.4799C134.12 20.0132 135.133 20.7599 135.907 21.7199C136.68 22.6532 137.24 23.7466 137.587 24.9999C137.96 26.2532 138.147 27.6132 138.147 29.0799C138.147 30.2532 137.96 31.4532 137.587 32.6799C137.213 33.8799 136.64 34.9999 135.867 36.0399C135.093 37.0532 134.08 37.8799 132.827 38.5199C131.573 39.1332 130.067 39.4399 128.307 39.4399ZM129.987 35.4399C131.56 35.4399 132.92 35.1732 134.067 34.6399C135.213 34.1066 136.093 33.3599 136.707 32.3999C137.32 31.4399 137.627 30.3332 137.627 29.0799C137.627 27.7199 137.307 26.5732 136.667 25.6399C136.053 24.6799 135.173 23.9466 134.027 23.4399C132.907 22.9332 131.56 22.6799 129.987 22.6799C127.773 22.6799 126.053 23.2666 124.827 24.4399C123.6 25.6132 122.987 27.1599 122.987 29.0799C122.987 30.3599 123.28 31.4799 123.867 32.4399C124.453 33.3732 125.267 34.1066 126.307 34.6399C127.373 35.1732 128.6 35.4399 129.987 35.4399ZM137.627 11.1199H142.827V38.9999H137.987C137.907 38.3866 137.827 37.5999 137.747 36.6399C137.667 35.6532 137.627 34.7332 137.627 33.8799V11.1199Z" fill="white"/>
<path d="M154.391 10.3999V14.9599H148.351V10.3999H154.391ZM148.751 19.1199H153.951V38.9999H148.751V19.1199Z" fill="white"/>
<path d="M177.254 32.3999H182.294C182.081 33.7599 181.508 34.9732 180.574 36.0399C179.668 37.1066 178.428 37.9466 176.854 38.5599C175.281 39.1732 173.361 39.4799 171.094 39.4799C168.561 39.4799 166.321 39.0799 164.374 38.2799C162.428 37.4532 160.908 36.2666 159.814 34.7199C158.721 33.1732 158.174 31.3066 158.174 29.1199C158.174 26.9332 158.708 25.0666 159.774 23.5199C160.841 21.9466 162.321 20.7466 164.214 19.9199C166.134 19.0932 168.374 18.6799 170.934 18.6799C173.548 18.6799 175.721 19.0932 177.454 19.9199C179.188 20.7466 180.468 21.9999 181.294 23.6799C182.148 25.3332 182.508 27.4532 182.374 30.0399H163.414C163.548 31.0532 163.921 31.9732 164.534 32.7999C165.174 33.6266 166.028 34.2799 167.094 34.7599C168.188 35.2399 169.481 35.4799 170.974 35.4799C172.628 35.4799 174.001 35.1999 175.094 34.6399C176.214 34.0532 176.934 33.3066 177.254 32.3999ZM170.694 22.6399C168.774 22.6399 167.214 23.0666 166.014 23.9199C164.814 24.7466 164.041 25.7732 163.694 26.9999H177.214C177.081 25.6666 176.441 24.6132 175.294 23.8399C174.174 23.0399 172.641 22.6399 170.694 22.6399Z" fill="white"/>
<path d="M196.164 35.9599C194.004 35.9599 192.097 35.6399 190.444 34.9999C188.817 34.3332 187.55 33.3599 186.644 32.0799C185.737 30.7999 185.284 29.2532 185.284 27.4399C185.284 25.6532 185.724 24.1066 186.604 22.7999C187.484 21.4932 188.737 20.4799 190.364 19.7599C192.017 19.0399 193.95 18.6799 196.164 18.6799C196.777 18.6799 197.364 18.7199 197.924 18.7999C198.51 18.8799 199.084 18.9866 199.644 19.1199L209.684 19.1599V23.0799C208.324 23.1066 206.937 22.9466 205.524 22.5999C204.137 22.2266 202.91 21.8266 201.844 21.3999L201.724 21.1199C202.63 21.5466 203.484 22.0799 204.284 22.7199C205.084 23.3332 205.724 24.0532 206.204 24.8799C206.71 25.6799 206.964 26.6132 206.964 27.6799C206.964 29.4132 206.524 30.9066 205.644 32.1599C204.764 33.3866 203.51 34.3332 201.884 34.9999C200.284 35.6399 198.377 35.9599 196.164 35.9599ZM202.844 47.1999V46.2399C202.844 45.0132 202.444 44.1599 201.644 43.6799C200.87 43.1999 199.804 42.9599 198.444 42.9599H192.244C191.044 42.9599 190.03 42.8666 189.204 42.6799C188.404 42.4932 187.764 42.2266 187.284 41.8799C186.804 41.5332 186.457 41.1199 186.244 40.6399C186.03 40.1866 185.924 39.6932 185.924 39.1599C185.924 38.0932 186.27 37.2932 186.964 36.7599C187.657 36.1999 188.59 35.8266 189.764 35.6399C190.937 35.4532 192.23 35.4132 193.644 35.5199L196.164 35.9599C194.484 36.0132 193.23 36.1599 192.404 36.3999C191.604 36.6132 191.204 37.0532 191.204 37.7199C191.204 38.1199 191.364 38.4399 191.684 38.6799C192.004 38.8932 192.457 38.9999 193.044 38.9999H199.564C201.35 38.9999 202.87 39.1866 204.124 39.5599C205.404 39.9599 206.377 40.6132 207.044 41.5199C207.71 42.4532 208.044 43.7199 208.044 45.3199V47.1999H202.844ZM196.164 32.1999C197.31 32.1999 198.31 32.0132 199.164 31.6399C200.044 31.2666 200.724 30.7332 201.204 30.0399C201.684 29.3199 201.924 28.4666 201.924 27.4799C201.924 26.4666 201.684 25.5999 201.204 24.8799C200.724 24.1599 200.057 23.6132 199.204 23.2399C198.35 22.8399 197.337 22.6399 196.164 22.6399C195.017 22.6399 194.004 22.8399 193.124 23.2399C192.244 23.6132 191.564 24.1599 191.084 24.8799C190.604 25.5999 190.364 26.4666 190.364 27.4799C190.364 28.4666 190.604 29.3199 191.084 30.0399C191.564 30.7332 192.23 31.2666 193.084 31.6399C193.964 32.0132 194.99 32.1999 196.164 32.1999Z" fill="white"/>
<path d="M224.448 39.4799C221.941 39.4799 219.728 39.0799 217.808 38.2799C215.915 37.4799 214.435 36.3199 213.368 34.7999C212.301 33.2532 211.768 31.3599 211.768 29.1199C211.768 26.8799 212.301 24.9866 213.368 23.4399C214.435 21.8666 215.915 20.6799 217.808 19.8799C219.728 19.0799 221.941 18.6799 224.448 18.6799C226.955 18.6799 229.141 19.0799 231.008 19.8799C232.901 20.6799 234.381 21.8666 235.448 23.4399C236.515 24.9866 237.048 26.8799 237.048 29.1199C237.048 31.3599 236.515 33.2532 235.448 34.7999C234.381 36.3199 232.901 37.4799 231.008 38.2799C229.141 39.0799 226.955 39.4799 224.448 39.4799ZM224.448 35.4799C225.835 35.4799 227.075 35.2399 228.168 34.7599C229.288 34.2532 230.168 33.5332 230.808 32.5999C231.448 31.6399 231.768 30.4799 231.768 29.1199C231.768 27.7599 231.448 26.5999 230.808 25.6399C230.168 24.6532 229.301 23.9066 228.208 23.3999C227.115 22.8932 225.861 22.6399 224.448 22.6399C223.061 22.6399 221.808 22.8932 220.688 23.3999C219.568 23.9066 218.675 24.6399 218.008 25.5999C217.368 26.5599 217.048 27.7332 217.048 29.1199C217.048 30.4799 217.368 31.6399 218.008 32.5999C218.648 33.5332 219.528 34.2532 220.648 34.7599C221.768 35.2399 223.035 35.4799 224.448 35.4799Z" fill="white"/>
<path d="M256.212 39.4399C254.452 39.4399 252.946 39.1332 251.692 38.5199C250.439 37.8799 249.426 37.0532 248.652 36.0399C247.879 34.9999 247.306 33.8799 246.932 32.6799C246.559 31.4532 246.372 30.2532 246.372 29.0799C246.372 27.6132 246.546 26.2532 246.892 24.9999C247.266 23.7466 247.839 22.6532 248.612 21.7199C249.386 20.7599 250.399 20.0132 251.652 19.4799C252.906 18.9466 254.426 18.6799 256.212 18.6799C258.266 18.6799 260.079 19.1199 261.652 19.9999C263.252 20.8532 264.506 22.0532 265.412 23.5999C266.346 25.1466 266.812 26.9732 266.812 29.0799C266.812 31.1332 266.346 32.9466 265.412 34.5199C264.479 36.0666 263.212 37.2799 261.612 38.1599C260.012 39.0132 258.212 39.4399 256.212 39.4399ZM254.532 35.4399C255.946 35.4399 257.172 35.1732 258.212 34.6399C259.252 34.1066 260.052 33.3732 260.612 32.4399C261.199 31.4799 261.492 30.3599 261.492 29.0799C261.492 27.1599 260.879 25.6132 259.652 24.4399C258.452 23.2666 256.746 22.6799 254.532 22.6799C252.986 22.6799 251.639 22.9332 250.492 23.4399C249.346 23.9466 248.452 24.6799 247.812 25.6399C247.199 26.5732 246.892 27.7199 246.892 29.0799C246.892 30.3332 247.199 31.4399 247.812 32.3999C248.426 33.3599 249.306 34.1066 250.452 34.6399C251.599 35.1732 252.959 35.4399 254.532 35.4399ZM246.892 11.1199V33.8799C246.892 34.7332 246.852 35.6532 246.772 36.6399C246.692 37.5999 246.612 38.3866 246.532 38.9999H241.692V11.1199H246.892Z" fill="white"/>
<path d="M282.378 39.4799C279.871 39.4799 277.658 39.0799 275.738 38.2799C273.844 37.4799 272.364 36.3199 271.298 34.7999C270.231 33.2532 269.698 31.3599 269.698 29.1199C269.698 26.8799 270.231 24.9866 271.298 23.4399C272.364 21.8666 273.844 20.6799 275.738 19.8799C277.658 19.0799 279.871 18.6799 282.378 18.6799C284.884 18.6799 287.071 19.0799 288.938 19.8799C290.831 20.6799 292.311 21.8666 293.378 23.4399C294.444 24.9866 294.978 26.8799 294.978 29.1199C294.978 31.3599 294.444 33.2532 293.378 34.7999C292.311 36.3199 290.831 37.4799 288.938 38.2799C287.071 39.0799 284.884 39.4799 282.378 39.4799ZM282.378 35.4799C283.764 35.4799 285.004 35.2399 286.098 34.7599C287.218 34.2532 288.098 33.5332 288.738 32.5999C289.378 31.6399 289.698 30.4799 289.698 29.1199C289.698 27.7599 289.378 26.5999 288.738 25.6399C288.098 24.6532 287.231 23.9066 286.138 23.3999C285.044 22.8932 283.791 22.6399 282.378 22.6399C280.991 22.6399 279.738 22.8932 278.618 23.3999C277.498 23.9066 276.604 24.6399 275.938 25.5999C275.298 26.5599 274.978 27.7332 274.978 29.1199C274.978 30.4799 275.298 31.6399 275.938 32.5999C276.578 33.5332 277.458 34.2532 278.578 34.7599C279.698 35.2399 280.964 35.4799 282.378 35.4799Z" fill="white"/>
<path d="M298.822 19.1199H304.022V38.9999H298.822V19.1199ZM311.662 23.3999C310.169 23.3999 308.875 23.6932 307.782 24.2799C306.689 24.8399 305.809 25.5332 305.142 26.3599C304.475 27.1866 304.009 27.9866 303.742 28.7599L303.702 26.5599C303.729 26.2399 303.835 25.7732 304.022 25.1599C304.209 24.5199 304.489 23.8399 304.862 23.1199C305.235 22.3732 305.729 21.6666 306.342 20.9999C306.955 20.3066 307.702 19.7466 308.582 19.3199C309.462 18.8932 310.489 18.6799 311.662 18.6799V23.3999Z" fill="white"/>
<path d="M314.877 19.1199H320.077V38.9999H314.877V19.1199ZM327.717 23.3999C326.223 23.3999 324.93 23.6932 323.837 24.2799C322.743 24.8399 321.863 25.5332 321.197 26.3599C320.53 27.1866 320.063 27.9866 319.797 28.7599L319.757 26.5599C319.783 26.2399 319.89 25.7732 320.077 25.1599C320.263 24.5199 320.543 23.8399 320.917 23.1199C321.29 22.3732 321.783 21.6666 322.397 20.9999C323.01 20.3066 323.757 19.7466 324.637 19.3199C325.517 18.8932 326.543 18.6799 327.717 18.6799V23.3999Z" fill="white"/>
<path d="M349.051 32.3999H354.091C353.878 33.7599 353.305 34.9732 352.371 36.0399C351.465 37.1066 350.225 37.9466 348.651 38.5599C347.078 39.1732 345.158 39.4799 342.891 39.4799C340.358 39.4799 338.118 39.0799 336.171 38.2799C334.225 37.4532 332.705 36.2666 331.611 34.7199C330.518 33.1732 329.971 31.3066 329.971 29.1199C329.971 26.9332 330.505 25.0666 331.571 23.5199C332.638 21.9466 334.118 20.7466 336.011 19.9199C337.931 19.0932 340.171 18.6799 342.731 18.6799C345.345 18.6799 347.518 19.0932 349.251 19.9199C350.985 20.7466 352.265 21.9999 353.091 23.6799C353.945 25.3332 354.305 27.4532 354.171 30.0399H335.211C335.345 31.0532 335.718 31.9732 336.331 32.7999C336.971 33.6266 337.825 34.2799 338.891 34.7599C339.985 35.2399 341.278 35.4799 342.771 35.4799C344.425 35.4799 345.798 35.1999 346.891 34.6399C348.011 34.0532 348.731 33.3066 349.051 32.3999ZM342.491 22.6399C340.571 22.6399 339.011 23.0666 337.811 23.9199C336.611 24.7466 335.838 25.7732 335.491 26.9999H349.011C348.878 25.6666 348.238 24.6132 347.091 23.8399C345.971 23.0399 344.438 22.6399 342.491 22.6399Z" fill="white"/>
<path d="M358.441 11.1199H363.641V38.9999H358.441V11.1199Z" fill="white"/>
<path d="M369.3 11.1199H374.5V38.9999H369.3V11.1199Z" fill="white"/>
<path d="M385.799 34.4399V38.9999H379.759V34.4399H385.799Z" fill="white"/>
<path d="M413.828 31.1599C413.695 32.8932 413.135 34.3866 412.148 35.6399C411.188 36.8932 409.855 37.8532 408.148 38.5199C406.441 39.1599 404.415 39.4799 402.068 39.4799C399.615 39.4799 397.415 39.0932 395.468 38.3199C393.548 37.5199 392.028 36.3599 390.908 34.8399C389.815 33.2932 389.268 31.3866 389.268 29.1199C389.268 26.8532 389.815 24.9466 390.908 23.3999C392.028 21.8532 393.548 20.6799 395.468 19.8799C397.415 19.0799 399.615 18.6799 402.068 18.6799C404.415 18.6799 406.428 19.0132 408.108 19.6799C409.788 20.3199 411.108 21.2532 412.068 22.4799C413.055 23.7066 413.628 25.1866 413.788 26.9199H409.028C408.575 25.5866 407.735 24.5466 406.508 23.7999C405.281 23.0532 403.801 22.6799 402.068 22.6799C400.681 22.6799 399.415 22.9199 398.268 23.3999C397.148 23.8799 396.241 24.5999 395.548 25.5599C394.881 26.4932 394.548 27.6799 394.548 29.1199C394.548 30.5332 394.881 31.7199 395.548 32.6799C396.215 33.6132 397.121 34.3199 398.268 34.7999C399.415 35.2532 400.681 35.4799 402.068 35.4799C403.935 35.4799 405.455 35.1066 406.628 34.3599C407.828 33.6132 408.641 32.5466 409.068 31.1599H413.828Z" fill="white"/>
<path d="M429.37 39.4799C426.863 39.4799 424.65 39.0799 422.73 38.2799C420.837 37.4799 419.357 36.3199 418.29 34.7999C417.223 33.2532 416.69 31.3599 416.69 29.1199C416.69 26.8799 417.223 24.9866 418.29 23.4399C419.357 21.8666 420.837 20.6799 422.73 19.8799C424.65 19.0799 426.863 18.6799 429.37 18.6799C431.877 18.6799 434.063 19.0799 435.93 19.8799C437.823 20.6799 439.303 21.8666 440.37 23.4399C441.437 24.9866 441.97 26.8799 441.97 29.1199C441.97 31.3599 441.437 33.2532 440.37 34.7999C439.303 36.3199 437.823 37.4799 435.93 38.2799C434.063 39.0799 431.877 39.4799 429.37 39.4799ZM429.37 35.4799C430.757 35.4799 431.997 35.2399 433.09 34.7599C434.21 34.2532 435.09 33.5332 435.73 32.5999C436.37 31.6399 436.69 30.4799 436.69 29.1199C436.69 27.7599 436.37 26.5999 435.73 25.6399C435.09 24.6532 434.223 23.9066 433.13 23.3999C432.037 22.8932 430.783 22.6399 429.37 22.6399C427.983 22.6399 426.73 22.8932 425.61 23.3999C424.49 23.9066 423.597 24.6399 422.93 25.5999C422.29 26.5599 421.97 27.7332 421.97 29.1199C421.97 30.4799 422.29 31.6399 422.93 32.5999C423.57 33.5332 424.45 34.2532 425.57 34.7599C426.69 35.2399 427.957 35.4799 429.37 35.4799Z" fill="white"/>
<path d="M445.814 19.1199H451.014V38.9999H445.814V19.1199ZM460.254 18.6799C461.481 18.6799 462.614 18.8399 463.654 19.1599C464.694 19.4799 465.601 19.9732 466.374 20.6399C467.147 21.3066 467.747 22.1599 468.174 23.1999C468.601 24.2132 468.814 25.4266 468.814 26.8399V38.9999H463.614V27.7599C463.614 26.0799 463.201 24.8532 462.374 24.0799C461.574 23.2799 460.254 22.8799 458.414 22.8799C457.027 22.8799 455.774 23.1466 454.654 23.6799C453.534 24.2132 452.627 24.8932 451.934 25.7199C451.241 26.5199 450.841 27.3599 450.734 28.2399L450.694 26.1999C450.827 25.2666 451.134 24.3599 451.614 23.4799C452.094 22.5999 452.734 21.7999 453.534 21.0799C454.361 20.3332 455.334 19.7466 456.454 19.3199C457.574 18.8932 458.841 18.6799 460.254 18.6799ZM477.574 18.6799C478.801 18.6799 479.934 18.8399 480.974 19.1599C482.014 19.4799 482.921 19.9732 483.694 20.6399C484.467 21.3066 485.067 22.1599 485.494 23.1999C485.947 24.2132 486.174 25.4266 486.174 26.8399V38.9999H480.974V27.7599C480.974 26.0799 480.561 24.8532 479.734 24.0799C478.907 23.2799 477.574 22.8799 475.734 22.8799C474.347 22.8799 473.094 23.1466 471.974 23.6799C470.854 24.2132 469.947 24.8932 469.254 25.7199C468.561 26.5199 468.174 27.3599 468.094 28.2399L468.014 26.0799C468.147 25.1999 468.467 24.3199 468.974 23.4399C469.481 22.5599 470.147 21.7599 470.974 21.0399C471.801 20.3199 472.761 19.7466 473.854 19.3199C474.974 18.8932 476.214 18.6799 477.574 18.6799Z" fill="white"/>
</svg>
