<svg width="310" height="25" viewBox="0 0 310 25" fill="none" xmlns="http://www.w3.org/2000/svg">
<path d="M18.88 21.624H16.612L30.004 0.707991H34.792V24H30.004V7.07999L31.156 7.40399L20.464 24H15.1L4.40797 7.47599L5.55997 7.15199V24H0.771973V0.707991H5.55997L18.88 21.624Z" fill="white"/>
<path d="M45.1108 14.28V20.004H63.0748V24H40.3228V0.707991H63.0388V4.70399H45.1108V10.5H59.7988V14.28H45.1108Z" fill="white"/>
<path d="M80.8143 16.44V12.624H91.4703C92.7423 12.624 93.7503 12.288 94.4943 11.616C95.2383 10.92 95.6103 9.95999 95.6103 8.73599C95.6103 7.46399 95.2383 6.49199 94.4943 5.81999C93.7503 5.14799 92.7423 4.81199 91.4703 4.81199H81.3903V24H76.6023V0.707991H91.0383C92.3343 0.707991 93.5463 0.863991 94.6743 1.17599C95.8263 1.48799 96.8223 1.96799 97.6623 2.61599C98.5263 3.26399 99.1983 4.09199 99.6783 5.09999C100.158 6.10799 100.398 7.31999 100.398 8.73599C100.398 10.128 100.158 11.316 99.6783 12.3C99.1983 13.284 98.5263 14.088 97.6623 14.712C96.8223 15.312 95.8263 15.756 94.6743 16.044C93.5463 16.308 92.3343 16.44 91.0383 16.44H80.8143Z" fill="white"/>
<path d="M104.905 24V0.707991H120.709C122.509 0.707991 124.069 0.959991 125.389 1.46399C126.733 1.94399 127.777 2.71199 128.521 3.76799C129.265 4.79999 129.637 6.13199 129.637 7.76399C129.637 8.86799 129.445 9.80399 129.061 10.572C128.677 11.34 128.137 11.964 127.441 12.444C126.769 12.924 125.989 13.296 125.101 13.56C124.213 13.8 123.265 13.956 122.257 14.028L121.753 13.74C123.433 13.764 124.813 13.908 125.893 14.172C126.973 14.412 127.777 14.868 128.305 15.54C128.857 16.188 129.133 17.16 129.133 18.456V24H124.345V18.78C124.345 17.892 124.189 17.208 123.877 16.728C123.565 16.224 123.001 15.876 122.185 15.684C121.393 15.492 120.241 15.396 118.729 15.396H109.693V24H104.905ZM109.693 11.652H120.709C122.053 11.652 123.073 11.328 123.769 10.68C124.489 10.032 124.849 9.15599 124.849 8.05199C124.849 6.99599 124.489 6.19199 123.769 5.63999C123.073 5.08799 122.053 4.81199 120.709 4.81199H109.693V11.652Z" fill="white"/>
<path d="M139.435 14.28V20.004H157.399V24H134.647V0.707991H157.363V4.70399H139.435V10.5H154.123V14.28H139.435Z" fill="white"/>
<path d="M160.767 16.152H165.627C165.723 16.968 166.095 17.712 166.743 18.384C167.415 19.032 168.291 19.548 169.371 19.932C170.451 20.292 171.663 20.472 173.007 20.472C174.231 20.472 175.239 20.34 176.031 20.076C176.823 19.812 177.411 19.44 177.795 18.96C178.179 18.48 178.371 17.904 178.371 17.232C178.371 16.584 178.131 16.092 177.651 15.756C177.171 15.396 176.415 15.108 175.383 14.892C174.351 14.652 172.995 14.412 171.315 14.172C169.995 13.98 168.747 13.716 167.571 13.38C166.395 13.02 165.351 12.564 164.439 12.012C163.551 11.46 162.843 10.788 162.315 9.99599C161.811 9.17999 161.559 8.21999 161.559 7.11599C161.559 5.74799 161.943 4.54799 162.711 3.51599C163.503 2.48399 164.667 1.67999 166.203 1.10399C167.739 0.52799 169.623 0.23999 171.855 0.23999C175.215 0.23999 177.795 0.959991 179.595 2.39999C181.419 3.81599 182.307 5.77199 182.259 8.26799H177.579C177.483 6.85199 176.883 5.83199 175.779 5.20799C174.699 4.58399 173.331 4.27199 171.675 4.27199C170.139 4.27199 168.867 4.49999 167.859 4.95599C166.875 5.41199 166.383 6.19199 166.383 7.29599C166.383 7.72799 166.503 8.11199 166.743 8.44799C166.983 8.75999 167.391 9.03599 167.967 9.27599C168.543 9.51599 169.323 9.74399 170.307 9.95999C171.291 10.176 172.515 10.392 173.979 10.608C175.347 10.8 176.583 11.064 177.687 11.4C178.815 11.712 179.775 12.132 180.567 12.66C181.383 13.164 182.007 13.812 182.439 14.604C182.871 15.396 183.087 16.368 183.087 17.52C183.087 18.936 182.715 20.172 181.971 21.228C181.251 22.26 180.123 23.064 178.587 23.64C177.075 24.216 175.107 24.504 172.683 24.504C170.955 24.504 169.431 24.324 168.111 23.964C166.791 23.58 165.651 23.076 164.691 22.452C163.731 21.828 162.951 21.144 162.351 20.4C161.751 19.656 161.319 18.912 161.055 18.168C160.815 17.424 160.719 16.752 160.767 16.152Z" fill="white"/>
<path d="M192.099 14.28V20.004H210.063V24H187.311V0.707991H210.027V4.70399H192.099V10.5H206.787V14.28H192.099Z" fill="white"/>
<path d="M238.595 19.248L237.083 19.86V0.707991H241.871V24H237.083L218.255 5.60399L219.767 4.99199V24H214.979V0.707991H219.767L238.595 19.248Z" fill="white"/>
<path d="M245.376 0.707991H269.928V4.70399H245.376V0.707991ZM255.276 4.19999H260.064V24H255.276V4.19999Z" fill="white"/>
<path d="M285.476 24.468C282.38 24.468 279.728 23.988 277.52 23.028C275.336 22.044 273.656 20.652 272.48 18.852C271.328 17.052 270.752 14.892 270.752 12.372C270.752 9.82799 271.328 7.65599 272.48 5.85599C273.656 4.05599 275.336 2.67599 277.52 1.71599C279.728 0.731991 282.38 0.23999 285.476 0.23999C288.596 0.23999 291.248 0.731991 293.432 1.71599C295.616 2.67599 297.284 4.05599 298.436 5.85599C299.612 7.65599 300.2 9.82799 300.2 12.372C300.2 14.892 299.612 17.052 298.436 18.852C297.284 20.652 295.616 22.044 293.432 23.028C291.248 23.988 288.596 24.468 285.476 24.468ZM285.476 20.328C287.396 20.328 289.076 20.04 290.516 19.464C291.98 18.888 293.12 18.012 293.936 16.836C294.776 15.66 295.196 14.172 295.196 12.372C295.196 10.572 294.776 9.08399 293.936 7.90799C293.12 6.73199 291.98 5.85599 290.516 5.27999C289.076 4.67999 287.396 4.37999 285.476 4.37999C283.58 4.37999 281.888 4.67999 280.4 5.27999C278.912 5.85599 277.748 6.73199 276.908 7.90799C276.068 9.08399 275.648 10.572 275.648 12.372C275.648 14.172 276.068 15.66 276.908 16.836C277.748 18.012 278.912 18.888 280.4 19.464C281.888 20.04 283.58 20.328 285.476 20.328Z" fill="white"/>
<path d="M309.95 19.896V24H304.514V19.896H309.95ZM309.95 6.17999V10.284H304.514V6.17999H309.95Z" fill="white"/>
</svg>
