<svg width="65" height="65" viewBox="0 0 65 65" fill="none" xmlns="http://www.w3.org/2000/svg">
<path d="M58.5 32.5C58.5 25.6044 55.7607 18.9912 50.8848 14.1152C46.0088 9.23928 39.3956 6.5 32.5 6.5C25.6044 6.5 18.9912 9.23928 14.1152 14.1152C9.23928 18.9912 6.5 25.6044 6.5 32.5C6.5 39.3956 9.23928 46.0088 14.1152 50.8848C18.9912 55.7607 25.6044 58.5 32.5 58.5C39.3956 58.5 46.0088 55.7607 50.8848 50.8848C55.7607 46.0088 58.5 39.3956 58.5 32.5ZM65 32.5C65 41.1195 61.5759 49.386 55.481 55.481C49.386 61.5759 41.1195 65 32.5 65C28.232 65 24.0059 64.1594 20.0628 62.5261C16.1197 60.8928 12.5369 58.4989 9.51903 55.481C3.4241 49.386 0 41.1195 0 32.5C0 23.8805 3.4241 15.614 9.51903 9.51903C15.614 3.4241 23.8805 0 32.5 0C36.768 0 40.9941 0.840637 44.9372 2.47392C48.8803 4.10719 52.4631 6.50113 55.481 9.51903C58.4989 12.5369 60.8928 16.1197 62.5261 20.0628C64.1594 24.0059 65 28.232 65 32.5ZM26 24.375C26 26.975 23.725 29.25 21.125 29.25C18.525 29.25 16.25 26.975 16.25 24.375C16.25 21.775 18.525 19.5 21.125 19.5C23.725 19.5 26 21.775 26 24.375ZM48.75 24.375C48.75 26.975 46.475 29.25 43.875 29.25C41.275 29.25 39 26.975 39 24.375C39 21.775 41.275 19.5 43.875 19.5C46.475 19.5 48.75 21.775 48.75 24.375ZM32.5 49.4975C26.8125 49.4975 21.8075 47.125 18.8825 43.615L23.4975 39C24.96 41.34 28.4375 42.9975 32.5 42.9975C36.5625 42.9975 40.04 41.34 41.5025 39L46.1175 43.615C43.1925 47.125 38.1875 49.4975 32.5 49.4975Z" fill="white"/>
</svg>
