<svg width="86" height="86" viewBox="0 0 86 86" fill="none" xmlns="http://www.w3.org/2000/svg">
<path d="M47.5 0L48.3033 21.7349C48.7947 35.0322 59.434 45.6964 72.6939 46.1824L95 47L72.6939 47.8176C59.4341 48.3036 48.7947 58.9678 48.3033 72.2651L47.5 94L46.6967 72.2651C46.2053 58.9678 35.566 48.3036 22.3061 47.8176L0 47L22.3061 46.1824C35.5659 45.6964 46.2053 35.0322 46.6967 21.7349L47.5 0Z" fill="white"/>
<path d="M70.9333 6.29677L60.7924 25.5225C54.5882 37.2847 58.4851 51.855 69.7262 58.9247L88.6362 70.8175L68.9109 60.3408C57.1852 54.1129 42.6543 58.0136 35.5989 69.283L24.0667 87.7032L34.2076 68.4774C40.4118 56.7152 36.5148 42.1449 25.2738 35.0752L6.36379 23.1824L26.0891 33.6591C37.8148 39.887 52.3457 35.9864 59.4011 24.7169L70.9333 6.29677Z" fill="white"/>
<path d="M88.0877 23.5L69.7198 35.065C58.4824 42.1405 54.5928 56.7128 60.803 68.4718L71.25 88.2532L59.3909 69.2894C52.3413 58.0164 37.8123 54.1083 26.0835 60.3302L6.91227 70.5L25.2802 58.9349C36.5176 51.8595 40.4072 37.2872 34.197 25.5282L23.75 5.74676L35.6091 24.7106C42.6587 35.9836 57.1877 39.8917 68.9165 33.6698L88.0877 23.5Z" fill="white"/>
</svg>
