<svg width="489" height="122" viewBox="0 0 489 122" fill="none" xmlns="http://www.w3.org/2000/svg">
<path fill-rule="evenodd" clip-rule="evenodd" d="M366.353 1.50117C365.852 1.50982 365.206 1.567 364.403 1.67822C343.622 4.55557 296.854 18.8959 246.781 35.6781C196.744 52.4486 143.468 71.6357 109.676 84.1904C79.9322 99.113 62.4559 108.885 54.5152 114.58C52.5289 116.004 51.1651 117.156 50.3569 118.054C49.9517 118.504 49.7081 118.867 49.5883 119.147C49.4692 119.426 49.4953 119.564 49.5252 119.629C49.5579 119.7 49.6563 119.817 49.9527 119.924C50.2467 120.031 50.674 120.105 51.2513 120.131C52.403 120.183 54.036 120.04 56.126 119.703C64.4847 118.358 79.6952 114.012 99.094 107.712C118.481 101.416 142.017 93.1782 167.009 84.063C216.992 65.8324 272.785 44.0961 312.824 27.3695C332.847 19.0047 348.917 11.898 358.351 7.11102C360.708 5.91461 362.645 4.86625 364.123 3.9818C365.613 3.08949 366.597 2.38691 367.082 1.88541C367.201 1.76313 367.277 1.66504 367.323 1.59068C367.323 1.58999 367.324 1.5893 367.324 1.58863C367.156 1.53298 366.847 1.49261 366.353 1.50117ZM53.9324 113.767C61.9495 108.018 79.5038 98.2085 109.252 83.2843L109.276 83.2721L109.302 83.2626C143.1 70.7053 196.401 51.5089 246.464 34.73C296.504 17.9586 343.372 3.58068 364.266 0.687668C365.09 0.573482 365.78 0.510919 366.335 0.501319C366.878 0.49194 367.34 0.531536 367.679 0.653367C367.853 0.715393 368.033 0.812188 368.168 0.971383C368.316 1.14408 368.38 1.35572 368.365 1.57456C368.35 1.77617 368.27 1.959 368.176 2.11314C368.079 2.27042 367.95 2.42674 367.801 2.58112C367.215 3.1863 366.129 3.94651 364.636 4.83982C363.131 5.74101 361.171 6.80112 358.803 8.00277C349.334 12.808 333.234 19.9269 313.21 28.2922C273.155 45.0256 217.347 66.7674 167.351 85.0024C142.353 94.1199 118.805 102.362 99.4029 108.663C80.0133 114.961 64.7315 119.331 56.285 120.69C54.1737 121.03 52.4608 121.187 51.2063 121.13C50.5806 121.102 50.0398 121.02 49.611 120.864C49.1847 120.709 48.8058 120.457 48.6172 120.048C48.4258 119.633 48.4866 119.181 48.6687 118.754C48.85 118.33 49.1742 117.873 49.6136 117.385C50.4949 116.405 51.9287 115.204 53.9324 113.767Z" fill="#DF38E1"/>
<path fill-rule="evenodd" clip-rule="evenodd" d="M279.148 22.319C235.458 34.5442 190.21 48.3606 181.427 51.9536C174.401 54.8278 150.919 66.7678 124.385 80.5459C98.3631 94.0584 69.4401 109.32 50.319 119.479C53.1744 120.167 57.272 120.204 62.4326 119.656C68.315 119.031 75.5095 117.654 83.6852 115.681C100.035 111.736 120.264 105.421 141.684 98.0226C184.519 83.2277 232.073 64.1181 262.788 51.0308L262.797 51.0273C280.959 43.6822 307.961 32.3849 329.938 22.3643C340.928 17.3531 350.652 12.6661 357.383 8.9548C360.753 7.09687 363.352 5.49498 364.983 4.2277C365.804 3.5895 366.344 3.06325 366.621 2.65618C366.76 2.45302 366.808 2.31503 366.818 2.23462C366.826 2.17526 366.814 2.15296 366.792 2.12692C366.766 2.09666 366.621 1.99443 366.185 1.92352C365.78 1.85759 365.219 1.83311 364.5 1.85556C363.066 1.90035 361.079 2.12889 358.604 2.52382C353.657 3.31294 346.821 4.75595 338.685 6.6711C322.416 10.5006 300.985 16.2087 279.148 22.319ZM366.345 0.936488C366.811 1.01223 367.277 1.15576 367.551 1.47613C367.769 1.73058 367.851 2.03962 367.81 2.35985C367.773 2.65902 367.632 2.94889 367.448 3.21931C367.08 3.75938 366.438 4.36313 365.596 5.01736C363.901 6.33492 361.245 7.9676 357.866 9.83052C351.1 13.5609 341.348 18.2607 330.353 23.2742C308.359 33.3023 281.345 44.6047 263.176 51.9527C232.447 65.0458 184.873 84.1637 142.01 98.9678C120.579 106.37 100.315 112.697 83.9198 116.653C75.7228 118.631 68.4814 120.019 62.5383 120.65C56.615 121.279 51.9117 121.166 48.8343 120.085L47.7583 119.707L48.7653 119.172C67.8673 109.02 97.4018 93.4308 123.925 79.6585C150.433 65.8938 173.969 53.9242 181.048 51.028C189.897 47.408 235.211 33.5748 278.879 21.356C300.72 15.2444 322.166 9.53194 338.456 5.6977C346.599 3.78096 353.463 2.33127 358.446 1.5363C360.936 1.13918 362.972 0.90282 364.469 0.856044C365.216 0.832708 365.849 0.855769 366.345 0.936488Z" fill="#DF38E1"/>
<path d="M45.8 55.7999L38.384 75.6359L30.464 55.7999H22.508L14.624 75.5999L7.17199 55.7999H0.187988L10.124 80.9999H19.052L26.504 62.0279L33.92 80.9999H42.884L52.82 55.7999H45.8Z" fill="white"/>
<path d="M80.9771 60.9479V55.7999H54.3371V80.9999H80.9771V75.8519H60.8171V70.7399H80.9771V66.0599H60.8171V60.9479H80.9771Z" fill="white"/>
<path d="M111.025 67.3199C112.285 65.9159 113.005 64.1879 113.005 62.4239C113.005 58.7159 111.241 55.7999 105.517 55.7999H83.341V80.9999H106.381C112.105 80.9999 114.589 77.9039 114.589 73.6559C114.589 70.7399 113.185 68.6519 111.025 67.3199ZM89.821 60.4799H103.177C104.941 60.4799 106.525 60.4799 106.525 63.0719C106.525 65.6999 104.941 65.6999 103.213 65.6999H103.177H89.821V60.4799ZM104.797 75.9959H89.821V70.6679H104.797C106.525 70.6679 108.109 70.6679 108.109 73.3319C108.109 75.9959 106.525 75.9959 104.797 75.9959Z" fill="white"/>
<path d="M152.078 55.7999H133.79V80.9999H152.078C158.594 80.9999 164.318 76.9679 164.318 68.3999C164.318 59.8319 158.594 55.7999 152.078 55.7999ZM149.63 75.5639H140.27V61.2359H149.63C154.526 61.2359 157.838 62.2799 157.838 68.3999C157.838 74.5199 154.526 75.5639 149.63 75.5639Z" fill="white"/>
<path d="M193.301 60.9479V55.7999H166.661V80.9999H193.301V75.8519H173.141V70.7399H193.301V66.0599H173.141V60.9479H193.301Z" fill="white"/>
<path d="M222.352 55.7999L212.236 76.2119L202.12 55.7999H194.848L207.808 80.9999H216.664L229.624 55.7999H222.352Z" fill="white"/>
<path d="M257.813 60.9479V55.7999H231.173V80.9999H257.813V75.8519H237.653V70.7399H257.813V66.0599H237.653V60.9479H257.813Z" fill="white"/>
<path d="M266.657 75.5639V55.7999H260.177V80.9999H286.097V75.5639H266.657Z" fill="white"/>
<path d="M302.868 81.3599C313.92 81.3599 318.708 76.7159 318.708 68.3639C318.708 60.0479 313.92 55.4399 302.868 55.4399C291.78 55.4399 287.028 60.0119 287.028 68.3639C287.028 76.7519 291.78 81.3599 302.868 81.3599ZM302.868 75.9239C296.136 75.9239 293.508 73.5479 293.508 68.3639C293.508 63.2159 296.1 60.8759 302.868 60.8759C309.636 60.8759 312.228 63.2519 312.228 68.3639C312.228 73.5119 309.6 75.9239 302.868 75.9239Z" fill="white"/>
<path d="M340.868 55.7999H321.068V80.9999H327.548V74.2679H340.868C346.592 74.2679 350.516 70.6679 350.516 65.0519C350.516 59.4359 346.592 55.7999 340.868 55.7999ZM339.068 68.8319H327.548V61.2359H339.068C341.012 61.2359 344.036 61.2359 344.036 65.0519C344.036 68.8319 341.012 68.8319 339.068 68.8319Z" fill="white"/>
<path d="M391.441 55.7999H382.693L372.145 73.5839L361.597 55.7999H352.849V80.9999H359.329V63.7199L369.805 80.9999H374.485L384.961 63.7199V80.9999H391.441V55.7999Z" fill="white"/>
<path d="M420.973 60.9479V55.7999H394.333V80.9999H420.973V75.8519H400.813V70.7399H420.973V66.0599H400.813V60.9479H420.973Z" fill="white"/>
<path d="M449.329 55.7999V74.7359L432.121 55.7999H423.337V80.9999H429.817V62.0999L446.989 80.9999H455.809V55.7999H449.329Z" fill="white"/>
<path d="M488.918 55.7999H457.958V61.2359H470.198V80.9999H476.678V61.2359H488.918V55.7999Z" fill="white"/>
</svg>
